<?xml version="1.0" encoding="UTF-8"?>
<svg id="Layer_2" data-name="Layer 2" xmlns="http://www.w3.org/2000/svg" viewBox="0 0 2200.35 252.75">
  <defs>
    <style>
      .cls-1 {
        fill: #fff;
      }
    </style>
  </defs>
  <g id="Layer_1-2" data-name="Layer 1">
    <g>
      <g>
        <polygon class="cls-1" points="868.68 223.92 868.28 161.26 837.42 212.6 826.13 212.48 795.7 162.91 795.34 223.87 772.45 223.78 772.46 118.52 792.7 118.35 832.22 183.79 871.03 118.48 891.18 118.29 891.51 223.86 868.68 223.92"/>
        <polygon class="cls-1" points="2194.79 223.62 2174.77 224.02 2122.28 160.42 2121.91 223.88 2097.83 223.78 2097.86 118.38 2118.11 118.36 2170.18 181.8 2170.57 118.39 2194.71 118.3 2194.79 223.62"/>
        <polygon class="cls-1" points="1013.53 223.67 993.44 223.93 941.01 160.31 940.68 223.95 916.58 223.74 916.61 118.46 936.82 118.3 989.14 182.08 989.44 118.33 1013.48 118.33 1013.53 223.67"/>
        <polygon class="cls-1" points="1569.16 223.77 1549.09 223.9 1496.77 160.41 1496.34 223.91 1472.3 223.86 1472.3 118.45 1492.43 118.23 1544.32 181.27 1545.09 118.39 1569.12 118.28 1569.16 223.77"/>
        <path class="cls-1" d="M1700.63,170.3c.43,33.54-25.77,53.59-56.01,53.58h-50.3s.03-105.58.03-105.58h50.32c9.32,0,18.32,2.42,26.66,5.83,18.24,8.44,29.04,25.39,29.31,46.17ZM1675.89,170.23c-.35-17.22-11.97-30.19-29.03-31.42-8.96-.65-17.68-.44-28.03-.39l-.05,65.34c9.91.11,19.42.43,28.72-.42,17.47-1.6,28.75-15.36,28.39-33.1Z"/>
        <path class="cls-1" d="M1303.36,220.28c-17.41,7.71-36.66,7.22-53.3-.49-19.01-8.81-30.25-26.99-30.59-47.78-.37-22.65,12.35-42.3,33.34-50.84,13.71-5.58,28.69-6.14,42.93-2.09,22.26,6.32,37.46,25.23,39.18,47.21,1.79,22.86-9.56,44.25-31.57,54ZM1310.95,171.11c0-18.58-15.07-33.65-33.65-33.65s-33.65,15.07-33.65,33.65,15.07,33.65,33.65,33.65,33.65-15.07,33.65-33.65Z"/>
        <path class="cls-1" d="M2041.66,222.63c-15.3,4.83-30.93,4.05-45.09-1.86-20.5-8.56-32.85-27.78-32.75-49.92.1-22.11,12.6-41.13,33.1-49.58,13.91-5.74,29.26-6.29,43.72-2.03,23.43,6.91,38.56,27.47,38.86,51.01.3,23.67-13.94,44.83-37.83,52.38ZM2055.29,171.11c0-18.58-15.07-33.65-33.65-33.65s-33.65,15.07-33.65,33.65,15.07,33.65,33.65,33.65,33.65-15.07,33.65-33.65Z"/>
        <path class="cls-1" d="M1424.13,118.34l24.04-.03-.31,65.66c-.08,16.53-9.69,31.45-24.8,37.52-14.29,5.74-30.09,5.77-44.47.34-15.39-5.81-25.44-20.73-25.56-37.41l-.46-65.96,24.35-.2.5,64.63c.11,13.74,10.31,22.14,23.08,22.13,12.73-.01,23.13-8.22,23.22-21.9l.41-64.79Z"/>
        <path class="cls-1" d="M724.3,118.43l24.1-.16-.36,65.51c-.09,16.05-9.08,30.83-23.55,37.15-14.88,6.5-31.83,6.54-46.86.41-14.55-5.93-24.22-20.34-24.35-36.4l-.52-66.58h24.38s.55,65.09.55,65.09c.12,13.76,10.85,21.81,23.56,21.56,12.21-.24,22.45-8.13,22.55-21.41l.5-65.17Z"/>
        <path class="cls-1" d="M1786.95,201.39l-49.1-.15-9.3,22.57-25.07-.1,47.01-105.47,24.21.2,47.1,105.38-25.55.17-9.3-22.6ZM1779.12,182.63l-16.84-39.72-16.7,39.8,33.54-.08Z"/>
        <path class="cls-1" d="M517.99,201.41l-49.15-.18-9.5,22.69-25-.1,46.98-105.44,24.22-.09,47,105.16-25.54.45-9.02-22.5ZM509.78,182.22l-16.48-40.02-16.64,40.41,33.13-.39Z"/>
        <polygon class="cls-1" points="1203.77 165.82 1203.93 185.45 1155.25 185.48 1155 223.88 1130.62 223.8 1130.64 118.27 1210.32 118.28 1210.32 137.9 1155.11 137.95 1155.15 165.81 1203.77 165.82"/>
        <polygon class="cls-1" points="1874.16 223.73 1849.69 223.93 1849.7 138.43 1816.03 138.13 1816.05 118.27 1907.86 118.3 1907.97 138.17 1874.17 138.36 1874.16 223.73"/>
        <polygon class="cls-1" points="640.98 204 641.15 223.91 563.77 223.92 563.73 118.5 588.19 118.37 588.22 203.97 640.98 204"/>
        <rect class="cls-1" x="1920.96" y="118.26" width="24.46" height="105.65"/>
        <rect class="cls-1" x="1038.37" y="118.27" width="24.47" height="105.64"/>
        <g>
          <path class="cls-1" d="M483.78,78.59l-.87-38.99c-5.64,6.48-17.43,31.17-20.96,33.5-.44.29-2.01-.7-2.46-1.46l-19.05-31.79c-1.07,13.63-.7,26.35-.81,39.11l-5.27.62V27.66c1.21-.82,4.52-.75,5.39.72l21.92,37.27,21.84-37.42c.81-1.39,4.18-1.22,5.28-.54l.08,50.56c0,1.34-5.06,1.64-5.09.34Z"/>
          <path class="cls-1" d="M1674.12,52.31c6.35,3.2,9.94,7.99,9.18,15.07-.67,6.18-6.36,11.83-13.8,11.93l-29.9.42-.06-52.76c11.97.78,36.9-4.18,40.48,9.54,1.5,5.75.41,10.65-5.9,15.8ZM1674.94,40.13c-.28-3.78-3.88-8.16-8.55-8.25l-21.26-.43-.1,19.15c9.96-.74,30.96,3.85,29.9-10.46ZM1668.71,74.68c5.99-.12,9.22-5.42,9.1-9.75-.12-4.6-3.82-9.21-9.27-9.31l-23.38-.43-.11,19.98,23.66-.49Z"/>
          <path class="cls-1" d="M1037.49,79.1l-4.75.43-32.82-41.05-.81,40.31c-.8.85-4.14.81-5.52.29l.05-51.53c.94-.66,4.48-.71,5.58.67l32.26,40.42.66-40.65c.02-1.36,4.56-1.2,5.31-.29l.04,51.4Z"/>
          <path class="cls-1" d="M1117.96,79.08c-3.44,1.74-5.53-.53-7.59-3.15l-30.5-38.49-.36,42.15-5.43-.49.11-50.91c0-1.64,4.54-1.28,5.38-.23l32.53,40.81.52-40.33c.02-1.84,4.76-1.6,5.32-.75l.04,51.39Z"/>
          <path class="cls-1" d="M819.87,53.3c0,15.15-12.2,27.44-27.25,27.44s-27.25-12.28-27.25-27.44,12.2-27.44,27.25-27.44,27.25,12.28,27.25,27.44ZM814.56,53.3c0-12.21-9.83-22.11-21.96-22.11s-21.96,9.9-21.96,22.11,9.83,22.11,21.96,22.11,21.96-9.9,21.96-22.11Z"/>
          <path class="cls-1" d="M2109.96,53.3c0,15.15-12.2,27.44-27.25,27.44s-27.25-12.28-27.25-27.44,12.2-27.44,27.25-27.44,27.25,12.28,27.25,27.44ZM2104.65,53.3c0-12.21-9.83-22.11-21.96-22.11s-21.96,9.9-21.96,22.11,9.83,22.11,21.96,22.11,21.96-9.9,21.96-22.11Z"/>
          <path class="cls-1" d="M2047.03,53.3c0,15.15-12.2,27.44-27.25,27.44s-27.25-12.28-27.25-27.44,12.2-27.44,27.25-27.44,27.25,12.28,27.25,27.44ZM2041.73,53.3c0-12.21-9.83-22.12-21.97-22.12s-21.97,9.9-21.97,22.12,9.83,22.12,21.97,22.12,21.97-9.9,21.97-22.12Z"/>
          <path class="cls-1" d="M703.39,53.3c0,15.15-12.2,27.43-27.25,27.43s-27.25-12.28-27.25-27.43,12.2-27.43,27.25-27.43,27.25,12.28,27.25,27.43ZM698.08,53.3c0-12.21-9.83-22.11-21.97-22.11s-21.97,9.9-21.97,22.11,9.83,22.11,21.97,22.11,21.97-9.9,21.97-22.11Z"/>
          <path class="cls-1" d="M633.87,78.27l-10.86-15.29-18.06.02-.43,15.82c-.33,1.04-4.54.88-5.41,0V27.14c13.63-.15,38.19-4.07,40.83,14.57,1.29,9.09-2.67,16.55-11.53,20.03l12.04,17.3c-1.54.86-5.52.72-6.57-.76ZM623.93,57.58c7.69-.93,10.99-7.57,10.63-13.69-.37-6.26-5.14-11.75-12.23-11.86l-17.64-.28v26.35c6.52.12,12.75.26,19.24-.53Z"/>
          <path class="cls-1" d="M1278.66,78.69c-.93.81-4.51.98-5.43.52l-.2-23.82-32.5.02-.27,23.38c-.43,1.1-4.66.98-5.48-.16l-.02-50.36c0-1.18,4.02-1.43,5.42-1.03l.4,23.17,32.42-.07.25-22.25c.02-1.49,5.32-1.54,5.33.11l.09,50.48Z"/>
          <path class="cls-1" d="M1979.89,78.7c-.93.81-4.52.97-5.43.52l-.2-23.82-32.5.02-.27,23.38c-.43,1.11-4.67.98-5.47-.18l.06-50.4c.18-1.1,3.62-1.31,5.35-1.07l.37,23.28,32.43-.09.25-22.23c.02-1.49,5.33-1.54,5.33.09l.09,50.49Z"/>
          <path class="cls-1" d="M1488.57,55.14l-25.89.21-.26,19.47,31.48.07.07,4.8h-37.01s-.02-52.78-.02-52.78h34.85c1.36,0,1.23,4.81-.08,4.82l-29.24.13v18.57s24.4.12,24.4.12c.73,0,2.11.3,2.57.36s-.4,4.22-.86,4.23Z"/>
          <path class="cls-1" d="M538.32,55.04l-26.67.39.07,19.36,30.25.18c1.41,0,1.38,4.63-.15,4.64l-35.81.12-.02-52.77,34.81-.05c1.46,0,1.25,4.75-.13,4.76l-29.04.2.1,18.56,25.74.05c.67,0,1.12,3.1.84,4.54Z"/>
          <path class="cls-1" d="M722.07,63.22l-.51,15.5c-.15,1.24-4.58,1.04-5.4.1l.04-51.78c9-.2,16.8-.36,24.77.3,9.96.83,16.31,8.65,16.32,17.59.02,9.07-6.34,17.29-16.28,17.63l-18.94.66ZM740.78,57.56c7.78-.86,11.25-7.4,10.84-13.75-.96-14.98-19.6-12.01-29.91-11.86l.08,26.11c6.41.1,12.54.22,19-.49Z"/>
          <path class="cls-1" d="M1168.1,65.72l-29.17-.26-6.31,13.4c-.56,1.19-5.01.91-5.46-.41l22.85-50.39c.62-1.36,4.9-1.29,6.34-.58l23.14,51.09c-.18,1.1-5.12,1.54-5.69.23l-5.71-13.1ZM1165.77,60.87l-12.48-27.61-12.54,27.77,25.02-.15Z"/>
          <path class="cls-1" d="M972.86,65.71l-29.23-.21-6.2,13.37c-.68.8-4.08.7-5.77.27l23.39-51.69c1.5-.24,4.26-.27,6.04-.05l23.19,51.2c-.26,1.23-5.16,1.49-5.73.18l-5.69-13.07ZM970.33,60.46l-12.2-27.24-12.62,27.71,24.81-.47Z"/>
          <path class="cls-1" d="M1532.61,63.25l-.32,15.09c-.03,1.62-5.46,1.86-5.46.16l.02-51.47c8.58-.2,16.4-.32,24.36.22,10.2.7,16.76,8.5,16.78,17.66.02,9.24-6.52,17.33-16.73,17.68l-18.64.64ZM1551.14,57.64c8.01-.81,11.6-7.35,11.16-13.92-.99-14.72-18.6-11.78-29.79-11.98l-.08,26.13c5.9.28,12.26.42,18.72-.24Z"/>
          <path class="cls-1" d="M1617.45,28.24c.02-1.6,5.27-1.79,5.27-.34v31.56c-.02,13.26-9.68,21.08-22.05,20.79-11.14-.26-20.72-7.27-20.77-19.66l-.13-32.56c.03-1.44,5.28-1.46,5.3-.09l.42,32.41c.13,9.66,7.54,14.98,16.25,14.81,8.22-.16,15.27-5.51,15.37-14.57l.35-32.36Z"/>
          <path class="cls-1" d="M2192.82,77.61c-12.54,5.74-29.86.45-31.05-5.26-.19-.89,1.93-2.82,2.84-2.19,6.03,4.16,16.92,7.38,24.63,3.74,3.29-1.56,5.5-4.56,5.62-7.79.12-3.25-2.97-6.93-6.45-7.94l-15.53-4.55c-5.65-1.65-9.83-6.07-10.19-11.06-.45-6.09,2.09-10.85,7.79-13.82,7.88-4.11,27.09-2.36,27.16,4.45.05,5.18-12.9-6.18-24.03-.43-3.48,1.8-5.66,5.14-5.5,8.61.13,3.03,3.37,6.45,6.62,7.4l15.52,4.5c5.41,1.57,9.61,5.79,10.05,10.84.46,5.26-1.77,10.91-7.47,13.52Z"/>
          <path class="cls-1" d="M1862.69,77.61c-12.53,5.73-29.85.47-31.05-5.26-.19-.89,1.93-2.82,2.84-2.19,6.03,4.16,16.92,7.38,24.63,3.74,3.29-1.56,5.5-4.56,5.62-7.79s-2.97-6.93-6.45-7.94l-15.53-4.55c-5.65-1.65-9.83-6.07-10.19-11.06-.45-6.09,2.09-10.85,7.79-13.82,7.88-4.11,27.1-2.36,27.16,4.45.05,5.18-12.91-6.18-24.03-.43-3.48,1.8-5.66,5.14-5.5,8.61.13,3.03,3.37,6.45,6.62,7.4l15.52,4.5c5.41,1.57,9.61,5.79,10.05,10.84.46,5.26-1.77,10.91-7.47,13.52Z"/>
          <path class="cls-1" d="M1215.03,77.59c-14.78,6.99-37.86-2.53-28.92-7.79,7.32,4.83,16.84,7.63,25.56,3.99,2.94-1.23,5.33-4.76,5.4-7.69.08-3.13-2.92-6.85-6.31-7.86l-16.32-4.85c-5.38-1.6-9.22-6.18-9.55-10.77-.45-6.17,2.11-11.31,7.97-13.95,8.34-3.77,19.8-2.71,26.89,2.43.73.53-1.5,4.24-2.29,3.81-6.07-3.29-14.91-5.2-21.44-2.23-3.67,1.67-5.86,5.03-5.73,8.74.11,2.96,3.39,6.41,6.73,7.38l15.63,4.53c5.3,1.54,9.38,5.93,9.77,10.48.5,5.7-1.53,11.01-7.39,13.78Z"/>
          <path class="cls-1" d="M1888.14,67.52c13.82,16.23,32.94,1.52,33.35,2.04l1.99,2.49c2.1,2.63-20.97,16.37-37.64.85-11.22-10.45-11.19-28.95.11-39.29,16.84-15.41,39.57-1.59,37.65.73l-2.09,2.52c-.51.62-2.64-.72-3.38-1.26-8.91-6.53-21.41-5.12-28.74,2.12-8.12,8.01-8.47,21.31-1.25,29.79Z"/>
          <path class="cls-1" d="M1768.74,67.52c13.83,16.24,32.93,1.51,33.36,2.05l1.99,2.49c2.09,2.62-20.97,16.37-37.64.85-11.23-10.45-11.19-28.95.11-39.29,16.85-15.41,39.57-1.59,37.65.73l-2.09,2.52c-.51.62-2.64-.72-3.38-1.26-8.91-6.53-21.41-5.11-28.74,2.12-8.12,8.01-8.47,21.32-1.25,29.79Z"/>
          <path class="cls-1" d="M1332.6,28.05c.59-1.32,4.71-1.33,5.68-.32l-22.26,50.75c-.62,1.41-5.3,1.57-6.38.43l-22.45-51.02,3.76-1.15c1-.31,2.51,1.81,3.01,2.93l18.87,42.67,19.77-44.29Z"/>
          <path class="cls-1" d="M571.77,78.68c0,1.44-5.47,1.31-5.47-.21l-.13-46.4-17.51-.46c-.99-.14-.93-3.69-.03-4.66l39.99-.1c1.36,0,1.94,4.02,1.24,4.66l-17.92.58-.18,46.59Z"/>
          <path class="cls-1" d="M915.04,78.62c0,1.57-5.47,1.32-5.47-.16l-.08-46.39-17.39-.48c-1.28-.04-1.12-4.69.6-4.69h40.34s.57,4.71.57,4.71l-18.38.46-.19,46.55Z"/>
          <path class="cls-1" d="M1446.88,74.95c1.05,0,1.06,3.88.47,4.73l-34.35-.02V27.58s5.48-.54,5.48-.54l.24,47.78,28.16.14Z"/>
          <path class="cls-1" d="M866.24,74.97c1.2.01,1.39,3.8.61,4.73l-34.29-.06.11-51.52c.02-1.54,5.46-1.5,5.47-.07l.16,46.68,27.94.23Z"/>
          <path class="cls-1" d="M1402.41,74.97c1.2.01,1.39,3.8.61,4.73l-34.29-.07.12-51.64c0-1.43,5.41-1.39,5.46.12l.16,46.63,27.94.24Z"/>
          <path class="cls-1" d="M2156.33,74.97c1.2.01,1.39,3.8.61,4.73l-34.29-.07.12-51.69c0-1.37,5.44-1.33,5.45.09l.17,46.7,27.94.24Z"/>
          <path class="cls-1" d="M1729.65,75.01c.85,0,1.31,3.96.91,4.7l-34.52-.07.08-51.53c0-1.49,5.35-1.41,5.35-.03l.19,46.6,27.98.33Z"/>
          <rect class="cls-1" x="876.82" y="26.86" width="5.6" height="52.83"/>
          <rect class="cls-1" x="1346.26" y="26.86" width="5.6" height="52.83"/>
          <rect class="cls-1" x="1740.22" y="26.86" width="5.52" height="52.83"/>
        </g>
      </g>
      <g>
        <path class="cls-1" d="M264.04,91.22c.62.37-3.11-8.02,0-15.05s-5.16-13.49,3.48-13.87c-.93-7.83-4.23-15.42-4.35-23.75l-13.68,5.41c.31-8.52-16.91-11.88-23.44-13.43-21.89-5.1-41.1-3.79-61.99,4.23-4.1,1.74-7.09,4.29-7.21,9.45l-34.88-12.56L203.48,0l76.54,31.59c-4.35,3.23-8.46,3.86-13.18,5.84.37,8.02,3.17,16.23,4.04,24.37s2.49,3.54.5,6.16-1.74,4.23-.93,6.4c1.55,4.1,5.91,18.9.93,21.08s-5.97,1.8-8.52.44c1.12-1.87,2.74-2.49,2.3-4.29s-.87-.25-1.12-.37h0Z"/>
        <path class="cls-1" d="M204.1,71.26c-16.66-8.33-27.48-11.88-47.01-9.33.87-6.59,2.11-13,4.23-19.34s3.48-2.8,5.22-3.98c20.15-8.89,44.02-9.39,64.73-1.99,20.71,7.4,11.19,2.18,12.81,4.97,3.23,6.28,3.3,13.43,4.48,20.39-15.86-2.42-30.72.87-44.46,9.2v.06Z"/>
        <path class="cls-1" d="M149.7,66.66c-52.42,13.68-97.5,59.32-111.11,112.17l-12.62,3.73c6.16-28.23,19.28-53.41,38.18-74.61,11.38-12.75,23.63-23.88,38.24-32.83,15.48-9.45,32.08-16.42,49.62-20.83l-2.36,12.37h.06Z"/>
        <path class="cls-1" d="M378.45,181.87c-4.66-.44-8.21-2.11-12.37-3.42-6.96-24.87-19.34-47.57-36.81-66.47-13.49-14.61-29.78-25.87-47.32-35.13-17.53-9.26-4.04-1.93-6.22-3.67.87-3.67.19-7.09.81-11.19,16.54,7.03,32.58,16.48,45.45,27.61,15.67,13.62,29.29,29.16,39.48,47.26,10.2,18.09,15.3,31.59,17.04,44.96l-.06.06Z"/>
        <path class="cls-1" d="M249.68,69.64c-5.6.25-10.69-.31-15.92.56-10.88,1.93-20.89,5.66-30.16,11.88-12.5-8.39-26.49-12.62-41.1-12.81-14.61-.19-4.85,1.06-7.27.25-.25-.81,0-3.36,1.31-3.61,14.92-3.36,31.84,0,44.58,8.27,1.87,1.18,3.48.93,5.22-.12,8.83-5.53,18.59-8.46,28.98-9.45,10.38-.99,17.53-.87,14.36,4.97v.06Z"/>
        <path class="cls-1" d="M259.32,67.96c-.5,1.87-3.54-.19-3.79-1.62-.68-3.86-1.49-7.27-1.74-11.44,3.11.31,5.35,1.62,8.52,2.74-1.93,3.36-2.05,6.4-2.98,10.32h0Z"/>
        <path class="cls-1" d="M155.29,239.39c-18.84-4.23-37.18-5.22-56.33-5.35-30.03-.19-59.44,2.05-88.79,7.59-2.18.44-3.17-.62-3.92-2.3-2.18-4.85-4.1-9.7-5.66-14.8s.25-3.3,1.99-3.79c8.83-2.49,17.41-3.86,26.74-4.48,30.28-1.87,60.06.19,90.22,4.54,21.7,3.17,42.47,7.77,63.11,14.55,6.78,2.18,12.81,4.6,19.15,8.21,19.83-11.07,54.72-18.53,77.47-22.01,34.63-5.35,83.57-10.01,117.14-1.62,1.24.31,3.92,1.18,3.54,2.8-1.74,6.78-4.66,12.87-7.96,18.96l-7.71-1.74c-24.44-3.79-48.37-6.16-73.18-5.97-18.34.12-35.94.75-53.78,3.92-9.95,1.74-19.59,2.67-29.04,6.16l-22.26,8.15c-5.97,2.18-13.68-2.61-19.46-4.66-10.26-3.92-20.15-6.4-31.21-8.15h-.06Z"/>
        <path class="cls-1" d="M184.95,229.81c-4.23-.93-7.27-2.8-11.19-4.04-26.99-8.64-54.41-14.05-82.82-16.54-23.44-2.05-46.2-2.55-69.58-.37-1.68.19-3.42.44-4.73-.56,8.33-6.09,16.04-11.13,24.56-15.86,23.19-.68,41.91.87,64.54,5.04,23.63,4.41,51.92,13.43,71.82,27.05,2.49,1.74,5.41,2.55,7.34,5.29h.06Z"/>
        <path class="cls-1" d="M383.74,208.73c-51.48-3.98-104.4.68-153.08,16.54-3.86,1.24-6.9,3.23-11.13,3.54,38.36-28.79,96.38-37.68,143.07-36.56,8.39,5.29,12.87,9.14,21.14,16.48Z"/>
        <path class="cls-1" d="M228.66,215.2c-2.3,1.37-3.67,3.92-7.03,3.92,20.27-23.69,58.32-36.06,88.79-38.55,13.18-1.06,25.99-1.74,39.36.99-35.26,2.67-62.49,6.28-95.51,20.02-33.02,13.74-17.22,8.7-25.62,13.62h0Z"/>
        <path class="cls-1" d="M184.02,221.54c-2.42-1.18-4.1-2.24-5.91-3.79-21.2-14.11-44.58-23.44-69.52-28.79-24.93-5.35-34.01-5.1-51.73-7.59,41.35-6.65,100.79,8.21,127.16,40.17Z"/>
        <path class="cls-1" d="M274.12,145.25l.81,21.14c0,.44,1.68-.19,1.68-.81v-18.47c0-5.6-7.71-5.1-3.36-9.26,5.66-5.41,11.57-10.2,17.78-14.99.99-.81,2.98-.93,3.98-.12l16.79,13.62c3.92,3.17-.12,4.48-.19,9.14,4.73,1.31,8.52-5.04,8.64-1.37l1.24,29.22c-37.43-2.55-88.36,12.25-112.54,41.54l-7.59,9.2c-25.37-37.24-76.11-52.48-119.26-50.12v-23.01c.06-4.23,4.73-2.55,6.84-3.36l.44-11.07c1.12-.68,2.24,0,3.48,0l21.76.5,1.68,12.68c1.68.93,3.73.25,5.35,1.43l.31,14.61c1.99.62,3.92.93,6.03.44l.25-26.11,2.36-.81c.62-.19.68-1.49.68-2.55l.25-25.8c0-2.36.81-4.48,1.43-6.65.87-3.11-.31-18.28,1.8-23.38,4.41,10.94-.44,17.04,3.92,27.79,6.59,1.43,13.31,2.49,20.21,3.17,3.3-7.34,0-17.29,2.8-24.13,1.62,4.29,1.74,8.46,1.55,12.62s1.55,10.26,2.61,15.48c-.31-1.49-.62,23.01.19,24.93.37.87,1.8.93,2.55,1.74l.5,26.18,17.47.25.25-12.62,5.16-1.12.25-15.42c3.54-.31,6.72.06,10.69.25l.62,43.96c0,.87,2.3.93,2.3.12v-40.48c.06-13-3.73-9.45-.99-16.54,2.74-7.09.56-7.15,2.05-10.45.75-1.12,2.86-.62,4.23-.87l.68-13.93c4.04.25,19.4-1.93,20.52-1.24s.87,10.2,1.87,12.87c2.18.62,4.23,0,6.65.37l1.37,19.9c2.86.81,10.82-2.49,10.94-.62l2.8,40.48c.06,1.24,3.48.62,3.61-.37v-29.53c4.66.87,9.08,1.74,14.49,1.87l.06-.31ZM157.72,125.79c.37-2.61.68-4.91-.31-7.15-4.85-.99-9.26-1.99-14.3-2.05-.19,2.42,0,5.41,1.18,7.59,4.17,1.93,8.89,1.8,13.43,1.55v.06ZM142.23,167.82v-24.56c.06-.99-.37-1.55-1.24-1.43s-.75.56-.75,1.43l.19,24.87c0,.87.5,1.31,1.18,1.24s.62-.44.62-1.55h0ZM176.87,174.85c-.06-.87-.25-1.62-1.06-1.62-2.86,0-1.12,12.19-1.18,14.8,3.11,4.35,2.18-13.87,2.24-13.18Z"/>
      </g>
    </g>
  </g>
</svg>