<?xml version="1.0" encoding="UTF-8"?>
<svg id="Layer_2" data-name="Layer 2" xmlns="http://www.w3.org/2000/svg" viewBox="0 0 729.4 568.9">
  <defs>
    <style>
      .cls-1 {
        fill: #fff;
      }
    </style>
  </defs>
  <g id="Layer_1-2" data-name="Layer 1">
    <g>
      <path class="cls-1" d="M472,146.7c1,.6-5-12.9,0-24.2s-8.3-21.7,5.6-22.3c-1.5-12.6-.8-24.8-1-38.2l-28,8.7c.5-13.7-21.2-19.1-31.7-21.6-35.2-8.2-72.1-6.1-105.7,6.8-6.6,2.8-11.4,6.9-11.6,15.2l-56.1-20.2L374.6,0l129.1,50.8c-7,5.2-13.6,6.2-21.2,9.4.6,12.9-.9,26.1.5,39.2s4,5.7.8,9.9-2.8,6.8-1.5,10.3c2.5,6.6,9.5,30.4,1.5,33.9s-9.6,2.9-13.7.7c1.8-3,4.4-4,3.7-6.9s-1.4-.4-1.8-.6h0Z"/>
      <path class="cls-1" d="M375.6,114.6c-26.8-13.4-44.2-19.1-75.6-15,1.4-10.6,3.4-20.9,6.8-31.1s5.6-4.5,8.4-6.4c32.4-14.3,76.8-15.1,110.1-3.2s12,3.5,14.6,8c5.2,10.1,5.3,21.6,7.2,32.8-25.5-3.9-49.4,1.4-71.5,14.8v.1Z"/>
      <path class="cls-1" d="M288.1,107.2c-84.3,22-156.8,95.4-178.7,180.4l-20.3,6c9.9-45.4,31-85.9,61.4-120,18.3-20.5,38-38.4,61.5-52.8,24.9-15.2,51.6-26.4,79.8-33.5l-3.8,19.9h.1Z"/>
      <path class="cls-1" d="M656,292.5c-7.5-.7-13.2-3.4-19.9-5.5-11.2-40-31.1-76.5-59.2-106.9-21.7-23.5-47.9-41.6-76.1-56.5s-6.5-3.1-10-5.9c1.4-5.9.3-11.4,1.3-18,26.6,11.3,52.4,26.5,73.1,44.4,25.2,21.9,47.1,46.9,63.5,76s24.6,50.8,27.4,72.3l-.1.1Z"/>
      <path class="cls-1" d="M448.9,112c-9,.4-17.2-.5-25.6.9-17.5,3.1-33.6,9.1-48.5,19.1-20.1-13.5-42.6-20.3-66.1-20.6s-7.8,1.7-11.7.4c-.4-1.3,0-5.4,2.1-5.8,24-5.4,51.2,0,71.7,13.3,3,1.9,5.6,1.5,8.4-.2,14.2-8.9,29.9-13.6,46.6-15.2s28.2-1.4,23.1,8v.1Z"/>
      <path class="cls-1" d="M464.4,109.3c-.8,3-5.7-.3-6.1-2.6-1.1-6.2-2.4-11.7-2.8-18.4,5,.5,8.6,2.6,13.7,4.4-3.1,5.4-3.3,10.3-4.8,16.6h0Z"/>
      <path class="cls-1" d="M297.1,385c-30.3-6.8-59.8-8.4-90.6-8.6-48.3-.3-95.6,3.3-142.8,12.2-3.5.7-5.1-1-6.3-3.7-3.5-7.8-6.6-15.6-9.1-23.8s.4-5.3,3.2-6.1c14.2-4,28-6.2,43-7.2,48.7-3,96.6.3,145.1,7.3,34.9,5.1,68.3,12.5,101.5,23.4,10.9,3.5,20.6,7.4,30.8,13.2,31.9-17.8,88-29.8,124.6-35.4,55.7-8.6,140.4-16.1,194.4-2.6,2,.5,6.3,1.9,5.7,4.5-2.8,10.9-7.5,20.7-12.8,30.5l-18.4-2.8c-39.3-6.1-77.8-9.9-117.7-9.6-29.5.2-57.8,1.2-86.5,6.3-16,2.8-31.5,4.3-46.7,9.9l-35.8,13.1c-9.6,3.5-22-4.2-31.3-7.5-16.5-6.3-32.4-10.3-50.2-13.1h-.1Z"/>
      <path class="cls-1" d="M344.8,369.6c-6.8-1.5-11.7-4.5-18-6.5-43.4-13.9-87.5-22.6-133.2-26.6-37.7-3.3-74.3-4.1-111.9-.6-2.7.3-5.5.7-7.6-.9,13.4-9.8,25.8-17.9,39.5-25.5,37.3-1.1,67.4,1.4,103.8,8.1,38,7.1,83.5,21.6,115.5,43.5,4,2.8,8.7,4.1,11.8,8.5h.1Z"/>
      <path class="cls-1" d="M670.5,335.7c-82.8-6.4-173.9,1.1-252.2,26.6-6.2,2-11.1,5.2-17.9,5.7,61.7-46.3,155-60.6,230.1-58.8,13.5,8.5,26.7,14.7,40,26.5Z"/>
      <path class="cls-1" d="M415.1,346.1c-3.7,2.2-5.9,6.3-11.3,6.3,32.6-38.1,93.8-58,142.8-62,21.2-1.7,41.8-2.8,63.3,1.6-56.7,4.3-100.5,10.1-153.6,32.2s-27.7,14-41.2,21.9h0Z"/>
      <path class="cls-1" d="M343.3,356.3c-3.9-1.9-6.6-3.6-9.5-6.1-34.1-22.7-71.7-37.7-111.8-46.3s-54.7-8.2-83.2-12.2c66.5-10.7,162.1,13.2,204.5,64.6Z"/>
      <path class="cls-1" d="M488.2,233.6l1.3,34c0,.7,2.7-.3,2.7-1.3v-29.7c0-9-12.4-8.2-5.4-14.9,9.1-8.7,18.6-16.4,28.6-24.1,1.6-1.3,4.8-1.5,6.4-.2l27,21.9c6.3,5.1-.2,7.2-.3,14.7,7.6,2.1,13.7-8.1,13.9-2.2l2,47c-60.2-4.1-142.1,19.7-181,66.8l-12.2,14.8c-40.8-59.9-122.4-84.4-191.8-80.6v-37c.1-6.8,7.6-4.1,11-5.4l.7-17.8c1.8-1.1,3.6,0,5.6,0l35,.8,2.7,20.4c2.7,1.5,6,.4,8.6,2.3l.5,23.5c3.2,1,6.3,1.5,9.7.7l.4-42,3.8-1.3c1-.3,1.1-2.4,1.1-4.1l.4-41.5c0-3.8,1.3-7.2,2.3-10.7,1.4-5-.5-29.4,2.9-37.6,7.1,17.6-.7,27.4,6.3,44.7,10.6,2.3,21.4,4,32.5,5.1,5.3-11.8,0-27.8,4.5-38.8,2.6,6.9,2.8,13.6,2.5,20.3s2.5,16.5,4.2,24.9c-.5-2.4-1,37,.3,40.1.6,1.4,2.9,1.5,4.1,2.8l.8,42.1,28.1.4.4-20.3,8.3-1.8.4-24.8c5.7-.5,10.8.1,17.2.4l1,70.7c0,1.4,3.7,1.5,3.7.2v-65.1c.1-20.9-6-15.2-1.6-26.6s.9-11.5,3.3-16.8c1.2-1.8,4.6-1,6.8-1.4l1.1-22.4c6.5.4,31.2-3.1,33-2s1.4,16.4,3,20.7c3.5,1,6.8,0,10.7.6l2.2,32c4.6,1.3,17.4-4,17.6-1l4.5,65.1c.1,2,5.6,1,5.8-.6v-47.5c7.5,1.4,14.6,2.8,23.3,3l.1-.5ZM301,202.3c.6-4.2,1.1-7.9-.5-11.5-7.8-1.6-14.9-3.2-23-3.3-.3,3.9,0,8.7,1.9,12.2,6.7,3.1,14.3,2.9,21.6,2.5v.1ZM276.1,269.9v-39.5c.1-1.6-.6-2.5-2-2.3s-1.2.9-1.2,2.3l.3,40c0,1.4.8,2.1,1.9,2s1-.7,1-2.5h0ZM331.8,281.2c-.1-1.4-.4-2.6-1.7-2.6-4.6,0-1.8,19.6-1.9,23.8,5,7,3.5-22.3,3.6-21.2Z"/>
      <path class="cls-1" d="M19.8,459.6l-.4,44.6H.3l-.3-79.6h22l19.1,43.6,20.1-43.5,22.1-.4.2,79.9h-20.1l-.5-43.7c-6.9,12.9-10.3,25.5-17.4,37.3s-6.3,1.5-8,0l-17.8-38.2h.1Z"/>
      <path class="cls-1" d="M95.2,504l-.3-79.3,19.7-.2,9.1,13.8c7.2,10.9,13.7,21.5,22.7,31.6.4-9.6.2-18,0-26.9s-1.3-12.4.4-18.6h20.3v79.5c-6.6.6-12.6.4-19.3.1l-31.9-46.3-.5,46.4c-6.7.2-12.9.5-20.2-.2v.1Z"/>
      <path class="cls-1" d="M305.1,486.5c-4.7,23.2-41.9,24-59.7,10.7,2.1-5.6,5.3-10.3,8.8-15,8,6.1,26.8,12.2,29.2,1.5s-1-6.5-4.3-8l-18.5-8.4c-9.6-4.4-14.4-13.7-13.2-24.3s8.8-17,18.9-18.9c12.2-2.3,25-.9,35.4,6.5-1.3,5-4,9.1-6.9,13.4-6.6-4.9-24.7-9.3-25.6,0s15,8.6,27.2,18.5c7.4,6,10.5,14.4,8.6,23.9l.1.1Z"/>
      <path class="cls-1" d="M234.7,471.3c-9.1,8.7-23.4,8.1-35.1,8.3v24.3c-6.8,1-13.6.4-20.8.4v-80l36.9.4c7.5,0,13.8,3.8,19.7,8.1,9.9,10.8,10,28.2-.7,38.4v.1ZM216.3,460.6c3.7-2.7,3.7-7.3,3.2-11.5-1.1-8.7-13.4-10.1-20.7-8.6l.3,22.6c5.6.8,12,1.1,17.1-2.5h.1Z"/>
      <path class="cls-1" d="M557.8,457.7l-.7,46.2c-5.6.8-10.7.6-17.2.2v-79.4c6.5-.4,12.7-.3,19.4,0,7.8,14.5,11.8,28.2,20.6,43.5l19.4-43.9,20,.4v79.5c-6,.4-11.6.5-17.6,0l-.6-45.2-17.4,38.3c-1.1,2.3-5.3,2.1-7.5.9-7.7-12.9-11.6-26.5-18.4-40.3v-.2Z"/>
      <path class="cls-1" d="M697.5,504c-6.2.9-11.5.5-17.6,0l-30.1-47.2-.5,47.2c-5.8.8-10.9.5-17.6-.3l-.6-79.1h17.4l30.3,47v-47.1h18.4l.3,79.4v.1Z"/>
      <path class="cls-1" d="M528.4,424.5l-.2,55c0,13.3-10.7,23.9-23.6,25.9-10.7,1.7-21.9,0-30.5-6.5-6.8-5.1-9.5-14-9.5-22.3l-.2-37.8c0-4.9-1.4-9.5,0-14.3,6.5-.5,12.8-.6,19.8,0l.3,53c0,7.4,6,11.7,13.1,11.4s9.9-3.6,10-9.5l.6-54.4c6.5-1.4,12.7-1,20.2-.4v-.1Z"/>
      <path class="cls-1" d="M460.4,504.3h-44.6l-.5-16.3v-63.6c7.1-.2,13.4-1.1,20.1.2l.2,63.9,24.7.4c.5,4.9.3,9.4.1,15.4h0Z"/>
      <rect class="cls-1" x="709.6" y="424.5" width="19.8" height="80"/>
      <path class="cls-1" d="M385.6,488.9h-29.6c0-.1-6.3,15.5-6.3,15.5-6.6-.1-12.5.8-19.1-.5l31-79.3,19.5-.3,29.7,79.5c-6.9,1.3-12.8.4-19.2.6-2.6-5-4.1-9.9-6-15.6v.1ZM379.8,472.8c-3.9-9.7-4.4-17.7-9.2-26.2l-9.5,26.7c7.1,0,12.6,1,18.7-.5Z"/>
      <path class="cls-1" d="M323.7,567.7c-3,.7-6.9,1.4-8.9-.2-5.6-7.7-9.5-15.9-16.7-23.5-1.7,7.8.2,15.4-.7,23.6-2.3,1.3-5.2.9-8,.2v-37.5c2.5-.6,7-1.5,8.9.7,5.8,7.1,9.8,15,16.8,22.5,1.9-7.9,0-15.2,1-22.9,2.1-1,4.7-.7,7.5-.4l.2,37.5h-.1Z"/>
      <path class="cls-1" d="M571,567.2c-1.9,1.3-7,1.6-9,0l-16.9-23.1c-1.4,7.9,0,15.4-.6,23.6-2.3.7-4.8.7-8,.3l.2-37.8c1.9-.7,6.1-1.2,8.1.4l17.7,23.4.8-23.3c1.7-1.5,5.3-1.3,7.6-.3v36.8h.1Z"/>
      <path class="cls-1" d="M374.2,548.1c.4,10.4-5.4,18.9-15.8,19.8s-13.5.6-20.1,0l-.4-37.3c5-1.9,10.4-.1,15.6-.6,11.4-1,20.3,6,20.7,18.1ZM365.1,548c-.1-6-3.2-10.5-8.7-11.4s-6.4-.4-9.9,0v24.8c4.3.4,8.4.8,12.1-.6s6.6-7,6.5-12.7v-.1Z"/>
      <path class="cls-1" d="M230.8,549c0,11-8.9,19.9-19.9,19.9s-19.9-8.9-19.9-19.9,8.9-19.9,19.9-19.9,19.9,8.9,19.9,19.9ZM216.6,537.7c-3.6-2.2-8.9-2.2-12.3.5s-5,7.9-4.5,12.4,2.4,8,6.5,10.1,8.2,1.2,11.2-1.5c5.7-5,5.8-17.3-1-21.5h.1Z"/>
      <path class="cls-1" d="M524.3,549c0,11-8.9,19.9-19.9,19.9s-19.9-8.9-19.9-19.9,8.9-19.9,19.9-19.9,19.9,8.9,19.9,19.9ZM514,555.6c2.3-5.3,1.9-10.9-1.2-15.3s-9.2-5.1-13.6-2.8c-4,2.1-5.9,7-5.6,12s2.9,10.5,7.9,11.8,10.3-.5,12.5-5.7h0Z"/>
      <path class="cls-1" d="M275.1,530.5c0,8.4,2.1,24.1-1.3,30.4s-11.4,8.6-18.5,7.7-13.5-6.2-13.6-14v-24.1c2.5-1.2,5.3-1,8.1,0l.2,21.2c0,5.3,2,9.3,7.2,10s9.5-1.7,9.6-7l.6-24c2.1-.9,5.5-1.1,7.6,0l.1-.2Z"/>
      <path class="cls-1" d="M408.3,560.1c-5.1-1.6-10.5,0-15.8-.1-2.1,2.3-1.8,5.7-3.9,7.6s-5.5.4-7.9,0l15.2-37.1c2-1.5,6.6-1.3,9,0l15.5,37c-2.8,1.2-6.2,1.5-8.7,0-1.7-1.5-1.4-5.1-3.3-7.4h-.1ZM406.1,552.5l-5.6-13.6c-2.8,5-4.4,9.1-5.1,14.2,3.9,0,7.2,1.2,10.6-.7l.1.1Z"/>
      <rect class="cls-1" x="31" y="545.6" width="103.9" height="5.4"/>
      <rect class="cls-1" x="589.4" y="545.7" width="102.5" height="5.4"/>
      <path class="cls-1" d="M179.9,547.1c1.2.7.5,3.8.2,5.4l-15.5.9-.3,14.3c-2.5,1.1-5.2.7-8.5,0l.2-37.7h25.3c.8,1.9.9,4.4,0,6.2l-16.6.4c-.7,2.7-1,6.4,0,9.2l15.1,1.4.1-.1Z"/>
      <path class="cls-1" d="M443,567.6c-2.8.7-5.7.7-8.6.1v-30.7c-3.7-1.4-7.1,0-10.8-.8-1.4-1.2-1-4.2-.2-6.4l30.6.2c.8,1.9,1.1,5.1-.3,6.2l-10.4.4-.3,31Z"/>
      <path class="cls-1" d="M473.2,567.2c-2.8,1.6-5.8,1.5-8.9.5l.5-37.8c2.9-.5,5.5-.7,8.2.2l.3,37-.1.1Z"/>
    </g>
  </g>
</svg>