<svg width="291" height="46" viewBox="0 0 291 46" fill="none" xmlns="http://www.w3.org/2000/svg">
<path d="M55.929 4.99039H57.6034L61.8764 14.6034C62.249 15.4421 62.6652 16.6055 62.6652 16.6055H62.7136C62.7136 16.6055 63.154 15.4421 63.5266 14.6034L67.7996 4.99039H69.4498L70.7516 21.3514H69.1498L68.2448 9.90112C68.1771 9.01884 68.1965 7.6227 68.1965 7.6227H68.1481C68.1481 7.6227 67.6641 9.07701 67.2867 9.90112L63.454 18.3022H61.9442L58.1115 9.90112C57.7389 9.08671 57.2308 7.57422 57.2308 7.57422H57.1824C57.1824 7.57422 57.1824 9.02854 57.134 9.90112L56.229 21.3514H54.6273L55.929 4.99039Z" fill="#007FAA"/>
<path d="M76.8151 4.99039H86.0096V6.44471H78.4121V12.388H84.6159V13.8423H78.4121V19.9068H86.4258V21.3611H76.8151V4.99039Z" fill="#007FAA"/>
<path d="M96.0656 6.43017H90.1907V4.97585H103.523V6.43017H97.6722V21.3466H96.0704L96.0656 6.43017Z" fill="#007FAA"/>
<path d="M108.377 4.99039H113.216C114.89 4.99039 115.635 5.15522 116.284 5.43154C117.818 6.10537 118.747 7.66633 118.747 9.6442C118.747 11.8548 117.494 13.5563 115.66 14.0653V14.1138C115.811 14.3218 115.95 14.5387 116.076 14.7634L119.628 21.3466H117.794L114.077 14.4822H109.964V21.3466H108.362L108.377 4.99039ZM113.859 13.0279C115.834 13.0279 117.087 11.7481 117.087 9.70237C117.087 8.3547 116.555 7.35123 115.602 6.83737C115.118 6.58044 114.532 6.43986 113.279 6.43986H109.978V13.0279H113.859Z" fill="#007FAA"/>
<path d="M132.466 4.70923C133.563 4.7008 134.65 4.91124 135.664 5.32826C136.678 5.74527 137.6 6.36051 138.374 7.13807C139.148 7.91562 139.76 8.83991 140.174 9.85698C140.588 10.8741 140.796 11.9635 140.785 13.0618C140.812 14.1728 140.616 15.2778 140.21 16.312C139.804 17.3462 139.196 18.2886 138.421 19.0838C137.646 19.879 136.721 20.5109 135.698 20.9423C134.676 21.3738 133.578 21.596 132.469 21.596C131.359 21.596 130.261 21.3738 129.239 20.9423C128.217 20.5109 127.291 19.879 126.516 19.0838C125.741 18.2886 125.133 17.3462 124.727 16.312C124.321 15.2778 124.126 14.1728 124.152 13.0618C124.141 11.9639 124.349 10.8749 124.763 9.85811C125.176 8.84136 125.788 7.91729 126.562 7.13981C127.335 6.36232 128.256 5.74698 129.27 5.32967C130.284 4.91236 131.37 4.70145 132.466 4.70923ZM132.466 20.1395C136.134 20.1395 139.111 17.066 139.111 13.0667C139.145 12.1712 138.998 11.2781 138.679 10.4408C138.361 9.6034 137.877 8.83904 137.257 8.19344C136.636 7.54784 135.892 7.03426 135.069 6.68346C134.246 6.33266 133.361 6.15185 132.466 6.15185C131.572 6.15185 130.686 6.33266 129.863 6.68346C129.04 7.03426 128.296 7.54784 127.676 8.19344C127.055 8.83904 126.572 9.6034 126.253 10.4408C125.934 11.2781 125.788 12.1712 125.822 13.0667C125.846 17.066 128.798 20.1395 132.466 20.1395Z" fill="#007FAA"/>
<path d="M155.322 4.99039H156.88L165.218 16.7655C165.775 17.5799 166.563 18.976 166.563 18.976H166.612C166.612 18.976 166.472 17.6284 166.472 16.7655V4.99039H168.073V21.3466H166.515L158.177 9.57148C157.621 8.75706 156.832 7.36092 156.832 7.36092H156.783C156.783 7.36092 156.924 8.70859 156.924 9.57148V21.3466H155.322V4.99039Z" fill="#F1B434"/>
<path d="M183.031 16.1353H176.46L174.601 21.3466H172.908L178.899 4.98555H180.617L186.608 21.3466H184.914L183.031 16.1353ZM179.731 6.68709C179.731 6.68709 179.383 8.03476 179.102 8.80554L176.919 14.7391H182.543L180.404 8.80554C180.123 8.0396 179.775 6.68709 179.775 6.68709H179.731Z" fill="#F1B434"/>
<path d="M191.466 18.2974C192.615 19.411 194.141 20.0513 195.739 20.091C197.53 20.091 198.991 19.0197 198.991 17.2502C198.991 13.1297 190.837 14.1768 190.837 9.1061C190.837 6.75496 192.903 4.70923 195.923 4.70923C197.522 4.66679 199.078 5.2313 200.278 6.28958L199.49 7.63724C198.503 6.76426 197.239 6.26964 195.923 6.2411C193.832 6.2411 192.487 7.613 192.487 9.05762C192.487 12.9358 200.641 11.8257 200.641 17.2018C200.641 19.6256 198.759 21.6229 195.696 21.6229C194.736 21.6377 193.783 21.46 192.893 21.1004C192.003 20.7407 191.194 20.2063 190.513 19.5287L191.466 18.2974Z" fill="#F1B434"/>
<path d="M206.656 4.99039H208.258V12.4365H217.733V4.99039H219.335V21.3466H217.733V13.8762H208.258V21.3466H206.656V4.99039Z" fill="#F1B434"/>
<path d="M224.31 4.99039H226.028L230.557 17.4151C230.857 18.2537 231.186 19.5335 231.186 19.5335H231.235C231.235 19.5335 231.559 18.2537 231.864 17.4151L236.393 4.99039H238.111L232.043 21.3466H230.369L224.31 4.99039Z" fill="#F1B434"/>
<path d="M243.076 4.99039H244.678V21.3466H243.076V4.99039Z" fill="#F1B434"/>
<path d="M251.743 4.99039H253.345V19.9068H260.919V21.3611H251.724L251.743 4.99039Z" fill="#F1B434"/>
<path d="M266.097 4.99039H267.698V19.9068H275.272V21.3611H266.077L266.097 4.99039Z" fill="#F1B434"/>
<path d="M280.45 4.99039H289.644V6.44471H282.047V12.388H288.251V13.8423H282.056V19.9068H290.07V21.3611H280.45V4.99039Z" fill="#F1B434"/>
<path d="M55.1402 28.5018H60.7876C63.6911 28.5018 65.8301 30.4118 65.8301 33.4367C65.8301 36.4617 63.7153 38.4396 60.7876 38.4396H56.7468V44.858H55.145L55.1402 28.5018ZM60.5747 36.995C62.7571 36.995 64.175 35.6667 64.175 33.4367C64.175 31.2068 62.7571 29.9464 60.5989 29.9464H56.7275V36.995H60.5747Z" fill="#007FAA"/>
<path d="M70.7951 28.5018H72.4211V39.1328C72.4211 41.9493 74.231 43.646 77.0425 43.646C79.8541 43.646 81.6882 41.9493 81.6882 39.0843V28.5018H83.29V39.1667C83.29 42.7977 80.7591 45.1488 77.0619 45.1488C73.3647 45.1488 70.7709 42.7977 70.7709 39.1667L70.7951 28.5018Z" fill="#007FAA"/>
<path d="M89.5423 28.5018H95.1171C97.6964 28.5018 99.5305 30.0627 99.5305 32.6223C99.5666 33.3521 99.3906 34.0767 99.0238 34.7083C98.657 35.3399 98.1152 35.8513 97.4641 36.1806V36.229C99.1385 36.7138 100.203 38.299 100.203 40.2769C100.203 43.1855 98.0448 44.8628 95.301 44.8628H89.5423V28.5018ZM95.1171 35.5988C96.7673 35.5988 97.8803 34.4354 97.8803 32.7387C97.9085 32.3648 97.8558 31.9891 97.7257 31.6375C97.5956 31.2859 97.3913 30.9666 97.1266 30.7014C96.8619 30.4363 96.5431 30.2315 96.1921 30.1012C95.8411 29.9709 95.4662 29.9181 95.0929 29.9464H91.1441V35.5988H95.1171ZM95.3252 43.4182C97.2996 43.4182 98.5287 42.1869 98.5287 40.2284C98.5533 39.7973 98.4867 39.3659 98.3331 38.9625C98.1796 38.559 97.9427 38.1926 97.6379 37.8873C97.3332 37.582 96.9674 37.3447 96.5647 37.1909C96.1619 37.0371 95.7313 36.9704 95.301 36.995H91.1441V43.4182H95.3252Z" fill="#007FAA"/>
<path d="M106.402 28.5018H108.004V43.4182H115.577V44.8725H106.383L106.402 28.5018Z" fill="#007FAA"/>
<path d="M120.76 28.5018H122.362V44.858H120.76V28.5018Z" fill="#007FAA"/>
<path d="M136.531 28.2206C140.432 28.2206 142.406 30.3391 142.406 30.3391L141.545 31.5268C140.155 30.352 138.393 29.7095 136.575 29.7137C132.742 29.7137 130.003 32.6902 130.003 36.5538C130.003 40.4174 132.742 43.6509 136.623 43.6509C138.606 43.6389 140.506 42.8548 141.922 41.4646L142.851 42.5989C142.03 43.4161 141.055 44.0612 139.982 44.4965C138.91 44.9318 137.761 45.1486 136.604 45.1343C131.765 45.1343 128.334 41.3385 128.334 36.5684C128.334 31.7982 131.861 28.2206 136.531 28.2206Z" fill="#007FAA"/>
<path d="M156.972 41.8087C158.121 42.9224 159.647 43.5627 161.245 43.6024C163.036 43.6024 164.497 42.5311 164.497 40.7616C164.497 36.6411 156.343 37.6882 156.343 32.6175C156.343 30.2663 158.409 28.2206 161.429 28.2206C163.028 28.1782 164.584 28.7427 165.784 29.801L164.996 31.1486C164.006 30.2735 162.739 29.7787 161.419 29.7525C159.329 29.7525 157.983 31.1244 157.983 32.569C157.983 36.4472 166.138 35.3371 166.138 40.7132C166.138 43.137 164.255 45.1343 161.192 45.1343C160.232 45.1491 159.279 44.9714 158.389 44.6118C157.499 44.2521 156.69 43.7177 156.009 43.0401L156.972 41.8087Z" fill="#007FAA"/>
<path d="M179.155 28.2206C183.056 28.2206 185.03 30.3391 185.03 30.3391L184.169 31.5268C182.778 30.352 181.017 29.7095 179.199 29.7137C175.366 29.7137 172.627 32.6902 172.627 36.5538C172.627 40.4174 175.366 43.6509 179.247 43.6509C181.23 43.6389 183.13 42.8548 184.546 41.4646L185.475 42.5989C184.654 43.4161 183.679 44.0612 182.606 44.4965C181.533 44.9318 180.385 45.1486 179.228 45.1343C174.388 45.1343 170.957 41.3385 170.957 36.5684C170.957 31.7982 174.485 28.2206 179.155 28.2206Z" fill="#007FAA"/>
<path d="M191.277 28.5018H192.879V35.9479H202.354V28.5018H203.956V44.858H202.354V37.3876H192.884V44.858H191.282L191.277 28.5018Z" fill="#007FAA"/>
<path d="M217.99 28.2206C219.086 28.2122 220.173 28.4226 221.188 28.8396C222.202 29.2567 223.123 29.8719 223.898 30.6495C224.672 31.427 225.284 32.3513 225.698 33.3684C226.112 34.3854 226.319 35.4749 226.309 36.5732C226.335 37.6841 226.14 38.7892 225.734 39.8234C225.328 40.8576 224.72 41.8 223.945 42.5952C223.17 43.3904 222.244 44.0223 221.222 44.4537C220.2 44.8851 219.102 45.1074 217.992 45.1074C216.883 45.1074 215.785 44.8851 214.763 44.4537C213.74 44.0223 212.815 43.3904 212.04 42.5952C211.265 41.8 210.656 40.8576 210.251 39.8234C209.845 38.7892 209.649 37.6841 209.676 36.5732C209.665 35.4753 209.873 34.3863 210.286 33.3695C210.7 32.3527 211.311 31.4287 212.085 30.6512C212.859 29.8737 213.78 29.2584 214.794 28.8411C215.807 28.4238 216.894 28.2128 217.99 28.2206ZM217.99 43.6509C221.658 43.6509 224.634 40.5774 224.634 36.5781C224.668 35.6826 224.522 34.7895 224.203 33.9521C223.885 33.1148 223.401 32.3504 222.78 31.7048C222.16 31.0592 221.416 30.5456 220.593 30.1948C219.77 29.844 218.884 29.6632 217.99 29.6632C217.095 29.6632 216.21 29.844 215.387 30.1948C214.564 30.5456 213.82 31.0592 213.199 31.7048C212.579 32.3504 212.095 33.1148 211.777 33.9521C211.458 34.7895 211.312 35.6826 211.346 36.5781C211.346 40.5774 214.298 43.6509 217.99 43.6509Z" fill="#007FAA"/>
<path d="M239.457 28.2206C240.553 28.2122 241.64 28.4226 242.655 28.8396C243.669 29.2567 244.59 29.8719 245.365 30.6495C246.139 31.427 246.751 32.3513 247.165 33.3684C247.579 34.3854 247.786 35.4749 247.775 36.5732C247.802 37.6841 247.607 38.7892 247.201 39.8234C246.795 40.8576 246.187 41.8 245.412 42.5952C244.637 43.3904 243.711 44.0223 242.689 44.4537C241.667 44.8851 240.568 45.1074 239.459 45.1074C238.35 45.1074 237.252 44.8851 236.229 44.4537C235.207 44.0223 234.281 43.3904 233.506 42.5952C232.732 41.8 232.123 40.8576 231.717 39.8234C231.312 38.7892 231.116 37.6841 231.143 36.5732C231.132 35.4753 231.339 34.3863 231.753 33.3695C232.167 32.3527 232.778 31.4287 233.552 30.6512C234.326 29.8737 235.247 29.2584 236.26 28.8411C237.274 28.4238 238.361 28.2128 239.457 28.2206ZM239.457 43.6509C243.125 43.6509 246.101 40.5774 246.101 36.5781C246.135 35.6826 245.989 34.7895 245.67 33.9521C245.351 33.1148 244.868 32.3504 244.247 31.7048C243.627 31.0592 242.883 30.5456 242.06 30.1948C241.237 29.844 240.351 29.6632 239.457 29.6632C238.562 29.6632 237.677 29.844 236.854 30.1948C236.031 30.5456 235.287 31.0592 234.666 31.7048C234.046 32.3504 233.562 33.1148 233.243 33.9521C232.925 34.7895 232.778 35.6826 232.812 36.5781C232.812 40.5774 235.76 43.6509 239.457 43.6509Z" fill="#007FAA"/>
<path d="M253.447 28.5018H255.049V43.4182H262.622V44.8725H253.447V28.5018Z" fill="#007FAA"/>
<path d="M267.674 41.8087C268.824 42.9224 270.349 43.5627 271.947 43.6024C273.738 43.6024 275.199 42.531 275.199 40.7616C275.199 36.6411 267.045 37.6882 267.045 32.6175C267.045 30.2663 269.112 28.2206 272.131 28.2206C273.73 28.1782 275.286 28.7427 276.487 29.801L275.707 31.1535C274.718 30.2784 273.451 29.7836 272.131 29.7573C270.041 29.7573 268.695 31.1292 268.695 32.5739C268.695 36.452 276.849 35.3419 276.849 40.718C276.849 43.1419 274.967 45.1391 271.904 45.1391C270.944 45.1539 269.991 44.9763 269.101 44.6166C268.211 44.257 267.402 43.7226 266.721 43.0449L267.674 41.8087Z" fill="#007FAA"/>
<path d="M24.1819 40.2017C34.4 38.6665 41.441 29.124 39.9085 18.888C38.3759 8.65197 28.8501 1.59862 18.632 3.13388C8.41388 4.66914 1.37287 14.2116 2.90544 24.4477C4.43802 34.6837 13.9638 41.737 24.1819 40.2017Z" fill="white"/>
<path d="M18.5944 3.09979C13.6819 3.83708 9.26252 6.49775 6.30717 10.4972C3.35183 14.4967 2.10225 19.5079 2.83298 24.4297C2.91041 24.9145 3.00236 25.4283 3.11366 25.918C3.33117 25.6938 3.59519 25.5204 3.88704 25.4098C4.17889 25.2992 4.49143 25.2542 4.80255 25.2781C4.80255 25.2781 19.9881 26.7324 21.193 26.7324C23.6126 26.6984 25.137 25.9131 26.5162 23.6735C28.3502 20.6727 33.3782 9.75084 33.3782 9.75084C33.52 9.45944 33.7276 9.20518 33.9847 9.00826C34.2418 8.81134 34.5411 8.67719 34.859 8.61648C32.7839 6.46383 30.2247 4.83983 27.3952 3.88012C24.5658 2.92041 21.5481 2.65285 18.5944 3.09979ZM25.7951 22.2822C24.9112 23.6397 23.5901 24.6533 22.0514 25.1544C20.5127 25.6555 18.8492 25.6139 17.3374 25.0365C15.8255 24.4592 14.5565 23.3808 13.7414 21.9808C12.9262 20.5807 12.614 18.9433 12.8566 17.3409C13.0992 15.7384 13.882 14.2674 15.075 13.1724C16.2679 12.0775 17.799 11.4245 19.4137 11.3222C21.0285 11.2198 22.6295 11.6742 23.9507 12.6098C25.2719 13.5454 26.2336 14.9059 26.6759 16.4649C26.9506 17.4415 27.0142 18.4656 26.8623 19.4688C26.7105 20.472 26.3466 21.4311 25.7951 22.2822Z" fill="#F1B434"/>
<path d="M23.7965 40.2817C19.8301 40.8022 15.8015 40.0374 12.3002 38.0992C8.79895 36.161 6.00878 33.1512 4.33799 29.5101L20.9511 32.952C21.7115 34.3727 22.3791 35.8415 22.9497 37.3488C23.2901 38.3087 23.5729 39.288 23.7965 40.2817Z" fill="#007FAA"/>
<path d="M39.9063 18.8839C40.3 21.4903 40.1392 24.1506 39.4344 26.6904C38.7297 29.2301 37.497 31.5919 35.8172 33.621C35.0824 31.8179 34.2104 30.074 33.2088 28.4048C32.7781 27.731 32.3716 27.0863 31.9119 26.4367L37.1818 11.5736C38.5939 13.7909 39.5224 16.2821 39.9063 18.8839Z" fill="#007FAA"/>
<path d="M18.7444 8.75222C20.4865 10.2889 22.9448 10.6234 24.4934 8.70859" stroke="#007FAA" stroke-width="1.05" stroke-miterlimit="10"/>
<path d="M20.4913 6.2411L20.7091 5.78057L20.2591 6.01326L20.08 6.10537L11.6259 10.4683L7.21249 19.679L10.5612 17.958L10.9 17.7835L11.6791 17.3908L16.2909 14.9137L18.5944 10.2502L19.0783 9.20305L20.6946 5.80966L20.2687 6.70164" fill="#007FAA"/>
<path d="M16.2328 14.8894L12.0469 17.1388C12.2611 17.5282 12.4969 17.9053 12.7534 18.2683C13.3341 18.8451 17.2926 17.6914 18.0572 16.9061C18.8218 16.1207 20.1235 11.8305 19.5574 11.2779C19.5088 11.2344 19.4552 11.197 19.3977 11.1664L19.238 11.0694L18.3911 10.5846L16.2618 14.8991L16.2328 14.8894Z" fill="#80BFD4"/>
<path d="M24.4256 9.14973C24.496 9.18568 24.5764 9.19663 24.6538 9.18078C24.7312 9.16492 24.8009 9.12321 24.8515 9.06247C24.8842 9.01106 24.9016 8.95136 24.9016 8.89038C24.9016 8.8294 24.8842 8.76969 24.8515 8.71828L26.7872 7.22034C26.8178 7.20844 26.8446 7.18831 26.8646 7.16217C26.9856 6.9828 26.7049 6.58529 26.2452 6.27019C25.7855 5.95509 25.3064 5.84844 25.1854 6.02296C25.1694 6.051 25.1611 6.08277 25.1612 6.11506L24.4982 8.49044C24.4387 8.47677 24.3766 8.48046 24.3191 8.50108C24.2616 8.5217 24.2113 8.55838 24.174 8.60679C24.137 8.67622 24.1245 8.75615 24.1386 8.83359C24.1526 8.91103 24.1924 8.98144 24.2514 9.03338" fill="#007FAA"/>
<path d="M24.6085 9.36282C24.9336 9.31397 25.1576 9.01037 25.1088 8.6847C25.0601 8.35904 24.757 8.13463 24.4319 8.18347C24.1068 8.23232 23.8828 8.53592 23.9316 8.86159C23.9803 9.18725 24.2834 9.41166 24.6085 9.36282Z" fill="white"/>
<path d="M6.85922 39.2443L9.1627 39.7679L11.229 40.1751L15.7344 39.2443L20.3945 38.0518L22.4657 38.7256L23.603 41.004L23.8256 43.3891H6.36562L6.85922 39.2443Z" fill="#F1B434"/>
<path d="M41.6629 43.0546V38.4881L40.9274 38.808C39.4905 39.3875 37.9565 39.687 36.4075 39.6903C34.3609 39.6202 32.3391 39.2175 30.4214 38.4978C28.9406 38.013 27.6776 37.6155 26.6081 37.7464C25.0305 37.9354 24.2514 39.1522 23.8594 40.3738C23.4675 39.1522 22.6835 37.95 21.1107 37.7464C20.0364 37.6155 18.7734 38.0227 17.2926 38.4978C15.3759 39.215 13.3561 39.6177 11.3113 39.6903C9.76789 39.6882 8.23895 39.3921 6.80599 38.8177L6.04139 38.4978V43.0643H4.29927V44.8095H43.3518V43.0643L41.6629 43.0546ZM26.7001 38.5075C27.6292 38.3911 28.7954 38.7789 30.1843 39.2298C32.1811 39.9718 34.2839 40.3875 36.4124 40.4611C37.873 40.4616 39.323 40.2124 40.6999 39.7242L40.8645 43.0594H24.2562C24.2998 42.0123 24.6192 38.7547 26.7001 38.5075ZM7.02376 39.7194C8.40069 40.2075 9.85069 40.4567 11.3113 40.4562C13.4393 40.3766 15.5406 39.9543 17.5346 39.2055C18.9234 38.7547 20.0945 38.3717 21.0188 38.4832C23.0948 38.7353 23.4384 41.993 23.4384 43.0352H6.85922L7.02376 39.7194Z" fill="#F1B434"/>
<path d="M23.1239 42.4874L24.6821 39.2976L25.6838 38.2942L27.5276 38.0518L29.9859 38.7111L33.3927 39.6903L36.4898 40.0248L39.7031 39.6903L41.0435 39.2152L41.2081 43.7478L22.8142 43.3891L23.1239 42.4874Z" fill="#F1B434"/>
<path d="M43.3518 43.0595H4.29927V44.7998H43.3518V43.0595Z" fill="#007FAA"/>
<path d="M24.5708 43.7478H23.0852C22.5186 43.7478 22.0592 44.2079 22.0592 44.7755V44.8773C22.0592 45.4449 22.5186 45.9051 23.0852 45.9051H24.5708C25.1374 45.9051 25.5967 45.4449 25.5967 44.8773V44.7755C25.5967 44.2079 25.1374 43.7478 24.5708 43.7478Z" fill="#007FAA"/>
<path d="M40.3467 40.2042L24.6192 40.8586C24.6192 41.0331 24.6192 41.1834 24.6192 41.3143L40.3951 40.2769H40.637" fill="#F1B434"/>
<path d="M41.4887 35.6522C41.6436 35.4534 40.037 38.2651 37.1334 38.396C34.5348 38.5802 32.2313 37.5912 30.3585 37.1307C28.8293 36.7574 27.5518 36.4278 26.5597 36.6459C24.595 37.0289 24.0385 39.763 24.082 41.1688H23.9611C23.3803 37.5428 24.7208 36.1418 26.3807 35.8364C27.5227 35.6134 28.9116 35.9479 30.5424 36.3502C32.4442 36.835 33.7073 37.3731 36.1849 37.4313C38.0968 37.4185 39.9547 36.7953 41.4887 35.6522Z" fill="#F1B434"/>
</svg>
