<?xml version="1.0" encoding="UTF-8"?>
<svg id="Layer_2" data-name="Layer 2" xmlns="http://www.w3.org/2000/svg" viewBox="0 0 400 252.75">
  <defs>
    <style>
      .cls-1 {
        fill: #fff;
      }
    </style>
  </defs>
  <g id="Layer_1-2" data-name="Layer 1">
    <g>
      <path class="cls-1" d="M264.04,91.22c.62.37-3.11-8.02,0-15.05s-5.16-13.49,3.48-13.87c-.93-7.83-4.23-15.42-4.35-23.75l-13.68,5.41c.31-8.52-16.91-11.88-23.44-13.43-21.89-5.1-41.1-3.79-61.99,4.23-4.1,1.74-7.09,4.29-7.21,9.45l-34.88-12.56L203.48,0l76.54,31.59c-4.35,3.23-8.46,3.86-13.18,5.84.37,8.02,3.17,16.23,4.04,24.37.87,8.15,2.49,3.54.5,6.16s-1.74,4.23-.93,6.4c1.55,4.1,5.91,18.9.93,21.08s-5.97,1.8-8.52.44c1.12-1.87,2.74-2.49,2.3-4.29s-.87-.25-1.12-.37h0Z"/>
      <path class="cls-1" d="M204.1,71.26c-16.66-8.33-27.48-11.88-47.01-9.33.87-6.59,2.11-13,4.23-19.34s3.48-2.8,5.22-3.98c20.15-8.89,44.02-9.39,64.73-1.99,20.71,7.4,11.19,2.18,12.81,4.97,3.23,6.28,3.3,13.43,4.48,20.39-15.86-2.42-30.72.87-44.46,9.2v.06Z"/>
      <path class="cls-1" d="M149.7,66.66c-52.42,13.68-97.5,59.32-111.11,112.17l-12.62,3.73c6.16-28.23,19.28-53.41,38.18-74.61,11.38-12.75,23.63-23.88,38.24-32.83,15.48-9.45,32.08-16.42,49.62-20.83l-2.36,12.37h.06Z"/>
      <path class="cls-1" d="M378.45,181.87c-4.66-.44-8.21-2.11-12.37-3.42-6.96-24.87-19.34-47.57-36.81-66.47-13.49-14.61-29.78-25.87-47.32-35.13-17.53-9.26-4.04-1.93-6.22-3.67.87-3.67.19-7.09.81-11.19,16.54,7.03,32.58,16.48,45.45,27.61,15.67,13.62,29.29,29.16,39.48,47.26,10.2,18.09,15.3,31.59,17.04,44.96l-.06.06Z"/>
      <path class="cls-1" d="M249.68,69.64c-5.6.25-10.69-.31-15.92.56-10.88,1.93-20.89,5.66-30.16,11.88-12.5-8.39-26.49-12.62-41.1-12.81-14.61-.19-4.85,1.06-7.27.25-.25-.81,0-3.36,1.31-3.61,14.92-3.36,31.84,0,44.58,8.27,1.87,1.18,3.48.93,5.22-.12,8.83-5.53,18.59-8.46,28.98-9.45,10.38-.99,17.53-.87,14.36,4.97v.06Z"/>
      <path class="cls-1" d="M259.32,67.96c-.5,1.87-3.54-.19-3.79-1.62-.68-3.86-1.49-7.27-1.74-11.44,3.11.31,5.35,1.62,8.52,2.74-1.93,3.36-2.05,6.4-2.98,10.32h0Z"/>
      <path class="cls-1" d="M155.29,239.39c-18.84-4.23-37.18-5.22-56.33-5.35-30.03-.19-59.44,2.05-88.79,7.59-2.18.44-3.17-.62-3.92-2.3-2.18-4.85-4.1-9.7-5.66-14.8s.25-3.3,1.99-3.79c8.83-2.49,17.41-3.86,26.74-4.48,30.28-1.87,60.06.19,90.22,4.54,21.7,3.17,42.47,7.77,63.11,14.55,6.78,2.18,12.81,4.6,19.15,8.21,19.83-11.07,54.72-18.53,77.47-22.01,34.63-5.35,83.57-10.01,117.14-1.62,1.24.31,3.92,1.18,3.54,2.8-1.74,6.78-4.66,12.87-7.96,18.96l-7.71-1.74c-24.44-3.79-48.37-6.16-73.18-5.97-18.34.12-35.94.75-53.78,3.92-9.95,1.74-19.59,2.67-29.04,6.16l-22.26,8.15c-5.97,2.18-13.68-2.61-19.46-4.66-10.26-3.92-20.15-6.4-31.21-8.15h-.06Z"/>
      <path class="cls-1" d="M184.95,229.81c-4.23-.93-7.27-2.8-11.19-4.04-26.99-8.64-54.41-14.05-82.82-16.54-23.44-2.05-46.2-2.55-69.58-.37-1.68.19-3.42.44-4.73-.56,8.33-6.09,16.04-11.13,24.56-15.86,23.19-.68,41.91.87,64.54,5.04,23.63,4.41,51.92,13.43,71.82,27.05,2.49,1.74,5.41,2.55,7.34,5.29h.06Z"/>
      <path class="cls-1" d="M383.74,208.73c-51.48-3.98-104.4.68-153.08,16.54-3.86,1.24-6.9,3.23-11.13,3.54,38.36-28.79,96.38-37.68,143.07-36.56,8.39,5.29,12.87,9.14,21.14,16.48Z"/>
      <path class="cls-1" d="M228.66,215.2c-2.3,1.37-3.67,3.92-7.03,3.92,20.27-23.69,58.32-36.06,88.79-38.55,13.18-1.06,25.99-1.74,39.36.99-35.26,2.67-62.49,6.28-95.51,20.02-33.02,13.74-17.22,8.7-25.62,13.62h0Z"/>
      <path class="cls-1" d="M184.02,221.54c-2.42-1.18-4.1-2.24-5.91-3.79-21.2-14.11-44.58-23.44-69.52-28.79-24.93-5.35-34.01-5.1-51.73-7.59,41.35-6.65,100.79,8.21,127.16,40.17Z"/>
      <path class="cls-1" d="M274.12,145.25l.81,21.14c0,.44,1.68-.19,1.68-.81v-18.47c0-5.6-7.71-5.1-3.36-9.26,5.66-5.41,11.57-10.2,17.78-14.99.99-.81,2.98-.93,3.98-.12l16.79,13.62c3.92,3.17-.12,4.48-.19,9.14,4.73,1.31,8.52-5.04,8.64-1.37l1.24,29.22c-37.43-2.55-88.36,12.25-112.54,41.54l-7.59,9.2c-25.37-37.24-76.11-52.48-119.26-50.12v-23.01c.06-4.23,4.73-2.55,6.84-3.36l.44-11.07c1.12-.68,2.24,0,3.48,0l21.76.5,1.68,12.68c1.68.93,3.73.25,5.35,1.43l.31,14.61c1.99.62,3.92.93,6.03.44l.25-26.11,2.36-.81c.62-.19.68-1.49.68-2.55l.25-25.8c0-2.36.81-4.48,1.43-6.65.87-3.11-.31-18.28,1.8-23.38,4.41,10.94-.44,17.04,3.92,27.79,6.59,1.43,13.31,2.49,20.21,3.17,3.3-7.34,0-17.29,2.8-24.13,1.62,4.29,1.74,8.46,1.55,12.62s1.55,10.26,2.61,15.48c-.31-1.49-.62,23.01.19,24.93.37.87,1.8.93,2.55,1.74l.5,26.18,17.47.25.25-12.62,5.16-1.12.25-15.42c3.54-.31,6.72.06,10.69.25l.62,43.96c0,.87,2.3.93,2.3.12v-40.48c.06-13-3.73-9.45-.99-16.54,2.74-7.09.56-7.15,2.05-10.45.75-1.12,2.86-.62,4.23-.87l.68-13.93c4.04.25,19.4-1.93,20.52-1.24s.87,10.2,1.87,12.87c2.18.62,4.23,0,6.65.37l1.37,19.9c2.86.81,10.82-2.49,10.94-.62l2.8,40.48c.06,1.24,3.48.62,3.61-.37v-29.53c4.66.87,9.08,1.74,14.49,1.87l.06-.31ZM157.72,125.79c.37-2.61.68-4.91-.31-7.15-4.85-.99-9.26-1.99-14.3-2.05-.19,2.42,0,5.41,1.18,7.59,4.17,1.93,8.89,1.8,13.43,1.55v.06ZM142.23,167.82v-24.56c.06-.99-.37-1.55-1.24-1.43s-.75.56-.75,1.43l.19,24.87c0,.87.5,1.31,1.18,1.24s.62-.44.62-1.55h0ZM176.87,174.85c-.06-.87-.25-1.62-1.06-1.62-2.86,0-1.12,12.19-1.18,14.8,3.11,4.35,2.18-13.87,2.24-13.18Z"/>
    </g>
  </g>
</svg>