<?xml version="1.0" encoding="UTF-8"?>
<svg id="Layer_2" data-name="Layer 2" xmlns="http://www.w3.org/2000/svg" viewBox="0 0 2253.05 320.94">
  <defs>
    <style>
      .cls-1, .cls-2 {
        fill: #027faa;
      }

      .cls-3 {
        fill: #0a345e;
      }

      .cls-4 {
        letter-spacing: 0em;
      }

      .cls-2 {
        font-family: Montserrat-Regular, Montserrat;
        font-size: 48px;
      }

      .cls-5 {
        fill: #80bfd4;
      }

      .cls-6 {
        letter-spacing: 0em;
      }

      .cls-7 {
        fill: #f1b335;
      }

      .cls-8 {
        letter-spacing: -.02em;
      }

      .cls-9 {
        letter-spacing: -.02em;
      }

      .cls-10 {
        letter-spacing: -.02em;
      }

      .cls-11 {
        letter-spacing: -.01em;
      }

      .cls-12 {
        letter-spacing: 0em;
      }

      .cls-13 {
        letter-spacing: 0em;
      }
    </style>
  </defs>
  <g id="Layer_2-2" data-name="Layer 2">
    <g>
      <g id="Layer_1-2" data-name="Layer 1-2">
        <g>
          <polygon class="cls-1" points="921.38 223.92 920.98 161.26 890.12 212.6 878.83 212.48 848.4 162.91 848.04 223.87 825.15 223.78 825.16 118.52 845.4 118.35 884.92 183.79 923.73 118.48 943.88 118.29 944.21 223.86 921.38 223.92"/>
          <polygon class="cls-1" points="2247.49 223.62 2227.47 224.02 2174.98 160.42 2174.61 223.88 2150.53 223.78 2150.56 118.38 2170.81 118.36 2222.88 181.8 2223.27 118.39 2247.4 118.3 2247.49 223.62"/>
          <polygon class="cls-1" points="1066.23 223.67 1046.14 223.93 993.71 160.31 993.38 223.95 969.28 223.74 969.31 118.46 989.52 118.3 1041.84 182.08 1042.14 118.33 1066.18 118.33 1066.23 223.67"/>
          <polygon class="cls-1" points="1621.86 223.77 1601.79 223.9 1549.47 160.41 1549.04 223.91 1525 223.86 1525 118.45 1545.13 118.23 1597.02 181.27 1597.79 118.39 1621.82 118.28 1621.86 223.77"/>
          <path class="cls-1" d="M1753.32,170.3c.43,33.54-25.77,53.59-56.01,53.58h-50.3l.03-105.58h50.32c9.32,0,18.32,2.42,26.66,5.83,18.24,8.44,29.04,25.39,29.31,46.17h-.01ZM1728.59,170.23c-.35-17.22-11.97-30.19-29.03-31.42-8.96-.65-17.68-.44-28.03-.39l-.05,65.34c9.91.11,19.42.43,28.72-.42,17.47-1.6,28.75-15.36,28.39-33.1h0Z"/>
          <path class="cls-1" d="M1356.06,220.28c-17.41,7.71-36.66,7.22-53.3-.49-19.01-8.81-30.25-26.99-30.59-47.78-.37-22.65,12.35-42.3,33.34-50.84,13.71-5.58,28.69-6.14,42.93-2.09,22.26,6.32,37.46,25.23,39.18,47.21,1.79,22.86-9.56,44.25-31.57,54h0ZM1363.65,171.11c0-18.58-15.07-33.65-33.65-33.65s-33.65,15.07-33.65,33.65,15.07,33.65,33.65,33.65,33.65-15.07,33.65-33.65h0Z"/>
          <path class="cls-1" d="M2094.36,222.63c-15.3,4.83-30.93,4.05-45.09-1.86-20.5-8.56-32.85-27.78-32.75-49.92.1-22.11,12.6-41.13,33.1-49.58,13.91-5.74,29.26-6.29,43.72-2.03,23.43,6.91,38.56,27.47,38.86,51.01.3,23.67-13.94,44.83-37.83,52.38h-.01ZM2107.99,171.11c0-18.58-15.07-33.65-33.65-33.65s-33.65,15.07-33.65,33.65,15.07,33.65,33.65,33.65,33.65-15.07,33.65-33.65h0Z"/>
          <path class="cls-1" d="M1476.82,118.34l24.04-.03-.31,65.66c-.08,16.53-9.69,31.45-24.8,37.52-14.29,5.74-30.09,5.77-44.47.34-15.39-5.81-25.44-20.73-25.56-37.41l-.46-65.96,24.35-.2.5,64.63c.11,13.74,10.31,22.14,23.08,22.13,12.73,0,23.13-8.22,23.22-21.9l.41-64.79h0Z"/>
          <path class="cls-1" d="M777,118.43l24.1-.16-.36,65.51c-.09,16.05-9.08,30.83-23.55,37.15-14.88,6.5-31.83,6.54-46.86.41-14.55-5.93-24.22-20.34-24.35-36.4l-.52-66.58h24.38l.55,65.09c.12,13.76,10.85,21.81,23.56,21.56,12.21-.24,22.45-8.13,22.55-21.41,0,0,.5-65.17.5-65.17Z"/>
          <path class="cls-1" d="M1839.65,201.39l-49.1-.15-9.3,22.57-25.07-.1,47.01-105.47,24.21.2,47.1,105.38-25.55.17-9.3-22.6h0ZM1831.82,182.63l-16.84-39.72-16.7,39.8,33.54-.08h0Z"/>
          <path class="cls-1" d="M570.69,201.41l-49.15-.18-9.5,22.69-25-.1,46.98-105.44,24.22-.09,47,105.16-25.54.45-9.02-22.5h.01ZM562.48,182.22l-16.48-40.02-16.64,40.41,33.13-.39h-.01Z"/>
          <polygon class="cls-1" points="1256.47 165.82 1256.63 185.45 1207.94 185.48 1207.69 223.88 1183.32 223.8 1183.34 118.27 1263.02 118.28 1263.02 137.9 1207.81 137.95 1207.85 165.81 1256.47 165.82"/>
          <polygon class="cls-1" points="1926.86 223.73 1902.39 223.93 1902.4 138.43 1868.73 138.13 1868.75 118.27 1960.56 118.3 1960.67 138.17 1926.87 138.36 1926.86 223.73"/>
          <polygon class="cls-1" points="693.68 204 693.85 223.91 616.47 223.92 616.43 118.5 640.89 118.37 640.92 203.97 693.68 204"/>
          <rect class="cls-1" x="1973.66" y="118.26" width="24.46" height="105.65"/>
          <rect class="cls-1" x="1091.07" y="118.27" width="24.47" height="105.64"/>
          <g>
            <path class="cls-1" d="M536.48,78.59l-.87-38.99c-5.64,6.48-17.43,31.17-20.96,33.5-.44.29-2.01-.7-2.46-1.46l-19.05-31.79c-1.07,13.63-.7,26.35-.81,39.11l-5.27.62V27.66c1.21-.82,4.52-.75,5.39.72l21.92,37.27,21.84-37.42c.81-1.39,4.18-1.22,5.28-.54l.08,50.56c0,1.34-5.06,1.64-5.09.34h0Z"/>
            <path class="cls-1" d="M1726.82,52.31c6.35,3.2,9.94,7.99,9.18,15.07-.67,6.18-6.36,11.83-13.8,11.93l-29.9.42-.06-52.76c11.97.78,36.9-4.18,40.48,9.54,1.5,5.75.41,10.65-5.9,15.8h0ZM1727.64,40.13c-.28-3.78-3.88-8.16-8.55-8.25l-21.26-.43-.1,19.15c9.96-.74,30.96,3.85,29.9-10.46h.01ZM1721.41,74.68c5.99-.12,9.22-5.42,9.1-9.75-.12-4.6-3.82-9.21-9.27-9.31l-23.38-.43-.11,19.98,23.66-.49Z"/>
            <path class="cls-1" d="M1090.19,79.1l-4.75.43-32.82-41.05-.81,40.31c-.8.85-4.14.81-5.52.29l.05-51.53c.94-.66,4.48-.71,5.58.67l32.26,40.42.66-40.65c.02-1.36,4.56-1.2,5.31-.29l.04,51.4h0Z"/>
            <path class="cls-1" d="M1170.66,79.08c-3.44,1.74-5.53-.53-7.59-3.15l-30.5-38.49-.36,42.15-5.43-.49.11-50.91c0-1.64,4.54-1.28,5.38-.23l32.53,40.81.52-40.33c.02-1.84,4.76-1.6,5.32-.75l.04,51.39h-.02Z"/>
            <path class="cls-1" d="M872.57,53.3c0,15.15-12.2,27.44-27.25,27.44s-27.25-12.28-27.25-27.44,12.2-27.44,27.25-27.44,27.25,12.28,27.25,27.44ZM867.26,53.3c0-12.21-9.83-22.11-21.96-22.11s-21.96,9.9-21.96,22.11,9.83,22.11,21.96,22.11,21.96-9.9,21.96-22.11Z"/>
            <path class="cls-1" d="M2162.65,53.3c0,15.15-12.2,27.44-27.25,27.44s-27.25-12.28-27.25-27.44,12.2-27.44,27.25-27.44,27.25,12.28,27.25,27.44ZM2157.35,53.3c0-12.21-9.83-22.11-21.96-22.11s-21.96,9.9-21.96,22.11,9.83,22.11,21.96,22.11,21.96-9.9,21.96-22.11Z"/>
            <path class="cls-1" d="M2099.73,53.3c0,15.15-12.2,27.44-27.25,27.44s-27.25-12.28-27.25-27.44,12.2-27.44,27.25-27.44,27.25,12.28,27.25,27.44ZM2094.42,53.3c0-12.21-9.83-22.12-21.97-22.12s-21.97,9.9-21.97,22.12,9.83,22.12,21.97,22.12,21.97-9.9,21.97-22.12Z"/>
            <path class="cls-1" d="M756.09,53.3c0,15.15-12.2,27.43-27.25,27.43s-27.25-12.28-27.25-27.43,12.2-27.43,27.25-27.43,27.25,12.28,27.25,27.43ZM750.78,53.3c0-12.21-9.83-22.11-21.97-22.11s-21.97,9.9-21.97,22.11,9.83,22.11,21.97,22.11,21.97-9.9,21.97-22.11Z"/>
            <path class="cls-1" d="M686.57,78.27l-10.86-15.29-18.06.02-.43,15.82c-.33,1.04-4.54.88-5.41,0V27.14c13.63-.15,38.19-4.07,40.83,14.57,1.29,9.09-2.67,16.55-11.53,20.03l12.04,17.3c-1.54.86-5.52.72-6.57-.76h-.01ZM676.63,57.58c7.69-.93,10.99-7.57,10.63-13.69-.37-6.26-5.14-11.75-12.23-11.86l-17.64-.28v26.35c6.52.12,12.75.26,19.24-.53h0Z"/>
            <path class="cls-1" d="M1331.36,78.69c-.93.81-4.51.98-5.43.52l-.2-23.82-32.5.02-.27,23.38c-.43,1.1-4.66.98-5.48-.16l-.02-50.36c0-1.18,4.02-1.43,5.42-1.03l.4,23.17,32.42-.07.25-22.25c.02-1.49,5.32-1.54,5.33.11l.09,50.48h-.01Z"/>
            <path class="cls-1" d="M2032.59,78.7c-.93.81-4.52.97-5.43.52l-.2-23.82-32.5.02-.27,23.38c-.43,1.11-4.67.98-5.47-.18l.06-50.4c.18-1.1,3.62-1.31,5.35-1.07l.37,23.28,32.43-.09.25-22.23c.02-1.49,5.33-1.54,5.33.09l.09,50.49h-.01Z"/>
            <path class="cls-1" d="M1541.27,55.14l-25.89.21-.26,19.47,31.48.07.07,4.8h-37.01l-.02-52.78h34.85c1.36,0,1.23,4.81-.08,4.82l-29.24.13v18.57l24.4.12c.73,0,2.11.3,2.57.36s-.4,4.22-.86,4.23h0Z"/>
            <path class="cls-1" d="M591.02,55.04l-26.67.39.07,19.36,30.25.18c1.41,0,1.38,4.63-.15,4.64l-35.81.12-.02-52.77,34.81-.05c1.46,0,1.25,4.75-.13,4.76l-29.04.2.1,18.56,25.74.05c.67,0,1.12,3.1.84,4.54v.02h.01Z"/>
            <path class="cls-1" d="M774.77,63.22l-.51,15.5c-.15,1.24-4.58,1.04-5.4.1l.04-51.78c9-.2,16.8-.36,24.77.3,9.96.83,16.31,8.65,16.32,17.59.02,9.07-6.34,17.29-16.28,17.63l-18.94.66h0ZM793.48,57.56c7.78-.86,11.25-7.4,10.84-13.75-.96-14.98-19.6-12.01-29.91-11.86l.08,26.11c6.41.1,12.54.22,19-.49h-.01Z"/>
            <path class="cls-1" d="M1220.8,65.72l-29.17-.26-6.31,13.4c-.56,1.19-5.01.91-5.46-.41l22.85-50.39c.62-1.36,4.9-1.29,6.34-.58l23.14,51.09c-.18,1.1-5.12,1.54-5.69.23l-5.71-13.1v.02h.01ZM1218.47,60.87l-12.48-27.61-12.54,27.77,25.02-.15h0Z"/>
            <path class="cls-1" d="M1025.56,65.71l-29.23-.21-6.2,13.37c-.68.8-4.08.7-5.77.27l23.39-51.69c1.5-.24,4.26-.27,6.04-.05l23.19,51.2c-.26,1.23-5.16,1.49-5.73.18,0,0-5.69-13.07-5.69-13.07ZM1023.03,60.46l-12.2-27.24-12.62,27.71,24.81-.47h.01Z"/>
            <path class="cls-1" d="M1585.31,63.25l-.32,15.09c-.03,1.62-5.46,1.86-5.46.16l.02-51.47c8.58-.2,16.4-.32,24.36.22,10.2.7,16.76,8.5,16.78,17.66.02,9.24-6.52,17.33-16.73,17.68l-18.64.64v.02h-.01ZM1603.84,57.64c8.01-.81,11.6-7.35,11.16-13.92-.99-14.72-18.6-11.78-29.79-11.98l-.08,26.13c5.9.28,12.26.42,18.72-.24h-.01Z"/>
            <path class="cls-1" d="M1670.15,28.24c.02-1.6,5.27-1.79,5.27-.34v31.56c-.02,13.26-9.68,21.08-22.05,20.79-11.14-.26-20.72-7.27-20.77-19.66l-.13-32.56c.03-1.44,5.28-1.46,5.3-.09l.42,32.41c.13,9.66,7.54,14.98,16.25,14.81,8.22-.16,15.27-5.51,15.37-14.57l.35-32.36h-.01Z"/>
            <path class="cls-1" d="M2245.52,77.61c-12.54,5.74-29.86.45-31.05-5.26-.19-.89,1.93-2.82,2.84-2.19,6.03,4.16,16.92,7.38,24.63,3.74,3.29-1.56,5.5-4.56,5.62-7.79.12-3.25-2.97-6.93-6.45-7.94l-15.53-4.55c-5.65-1.65-9.83-6.07-10.19-11.06-.45-6.09,2.09-10.85,7.79-13.82,7.88-4.11,27.09-2.36,27.16,4.45.05,5.18-12.9-6.18-24.03-.43-3.48,1.8-5.66,5.14-5.5,8.61.13,3.03,3.37,6.45,6.62,7.4l15.52,4.5c5.41,1.57,9.61,5.79,10.05,10.84.46,5.26-1.77,10.91-7.47,13.52v-.02h-.01Z"/>
            <path class="cls-1" d="M1915.39,77.61c-12.53,5.73-29.85.47-31.05-5.26-.19-.89,1.93-2.82,2.84-2.19,6.03,4.16,16.92,7.38,24.63,3.74,3.29-1.56,5.5-4.56,5.62-7.79s-2.97-6.93-6.45-7.94l-15.53-4.55c-5.65-1.65-9.83-6.07-10.19-11.06-.45-6.09,2.09-10.85,7.79-13.82,7.88-4.11,27.1-2.36,27.16,4.45.05,5.18-12.91-6.18-24.03-.43-3.48,1.8-5.66,5.14-5.5,8.61.13,3.03,3.37,6.45,6.62,7.4l15.52,4.5c5.41,1.57,9.61,5.79,10.05,10.84.46,5.26-1.77,10.91-7.47,13.52v-.02h-.01Z"/>
            <path class="cls-1" d="M1267.73,77.59c-14.78,6.99-37.86-2.53-28.92-7.79,7.32,4.83,16.84,7.63,25.56,3.99,2.94-1.23,5.33-4.76,5.4-7.69.08-3.13-2.92-6.85-6.31-7.86l-16.32-4.85c-5.38-1.6-9.22-6.18-9.55-10.77-.45-6.17,2.11-11.31,7.97-13.95,8.34-3.77,19.8-2.71,26.89,2.43.73.53-1.5,4.24-2.29,3.81-6.07-3.29-14.91-5.2-21.44-2.23-3.67,1.67-5.86,5.03-5.73,8.74.11,2.96,3.39,6.41,6.73,7.38l15.63,4.53c5.3,1.54,9.38,5.93,9.77,10.48.5,5.7-1.53,11.01-7.39,13.78Z"/>
            <path class="cls-1" d="M1940.84,67.52c13.82,16.23,32.94,1.52,33.35,2.04l1.99,2.49c2.1,2.63-20.97,16.37-37.64.85-11.22-10.45-11.19-28.95.11-39.29,16.84-15.41,39.57-1.59,37.65.73l-2.09,2.52c-.51.62-2.64-.72-3.38-1.26-8.91-6.53-21.41-5.12-28.74,2.12-8.12,8.01-8.47,21.31-1.25,29.79h0Z"/>
            <path class="cls-1" d="M1821.44,67.52c13.83,16.24,32.93,1.51,33.36,2.05l1.99,2.49c2.09,2.62-20.97,16.37-37.64.85-11.23-10.45-11.19-28.95.11-39.29,16.85-15.41,39.57-1.59,37.65.73l-2.09,2.52c-.51.62-2.64-.72-3.38-1.26-8.91-6.53-21.41-5.11-28.74,2.12-8.12,8.01-8.47,21.32-1.25,29.79h-.01Z"/>
            <path class="cls-1" d="M1385.3,28.05c.59-1.32,4.71-1.33,5.68-.32l-22.26,50.75c-.62,1.41-5.3,1.57-6.38.43l-22.45-51.02,3.76-1.15c1-.31,2.51,1.81,3.01,2.93l18.87,42.67,19.77-44.29h0Z"/>
            <path class="cls-1" d="M624.47,78.68c0,1.44-5.47,1.31-5.47-.21l-.13-46.4-17.51-.46c-.99-.14-.93-3.69-.03-4.66l39.99-.1c1.36,0,1.94,4.02,1.24,4.66l-17.92.58-.18,46.59h.01Z"/>
            <path class="cls-1" d="M967.74,78.62c0,1.57-5.47,1.32-5.47-.16l-.08-46.39-17.39-.48c-1.28-.04-1.12-4.69.6-4.69h40.34l.57,4.71-18.38.46s-.19,46.55-.19,46.55Z"/>
            <path class="cls-1" d="M1499.57,74.95c1.05,0,1.06,3.88.47,4.73l-34.35-.02V27.58l5.48-.54.24,47.78,28.16.14h0Z"/>
            <path class="cls-1" d="M918.94,74.97c1.2.01,1.39,3.8.61,4.73l-34.29-.06.11-51.52c.02-1.54,5.46-1.5,5.47-.07l.16,46.68,27.94.23h0Z"/>
            <path class="cls-1" d="M1455.11,74.97c1.2.01,1.39,3.8.61,4.73l-34.29-.07.12-51.64c0-1.43,5.41-1.39,5.46.12l.16,46.63,27.94.24h0Z"/>
            <path class="cls-1" d="M2209.03,74.97c1.2.01,1.39,3.8.61,4.73l-34.29-.07.12-51.69c0-1.37,5.44-1.33,5.45.09l.17,46.7s27.94.24,27.94.24Z"/>
            <path class="cls-1" d="M1782.35,75.01c.85,0,1.31,3.96.91,4.7l-34.52-.07.08-51.53c0-1.49,5.35-1.41,5.35-.03l.19,46.6,27.98.33h.01Z"/>
            <rect class="cls-1" x="929.52" y="26.86" width="5.6" height="52.83"/>
            <rect class="cls-1" x="1398.96" y="26.86" width="5.6" height="52.83"/>
            <rect class="cls-1" x="1792.92" y="26.86" width="5.52" height="52.83"/>
          </g>
        </g>
        <g>
          <path class="cls-7" d="M298.83,115.83c.7.47-3.52-10.18,0-19.11s-5.84-17.13,3.94-17.61c-1.05-9.94-4.79-19.58-4.92-30.16l-15.48,6.87c.35-10.82-19.14-15.08-26.53-17.05-24.77-6.48-46.51-4.81-70.15,5.37-4.64,2.21-8.02,5.45-8.16,12l-39.47-15.95L230.3,0l86.62,40.11c-4.92,4.1-9.57,4.9-14.92,7.42.42,10.18,3.59,20.61,4.57,30.94.98,10.34,2.82,4.49.57,7.82s-1.97,5.37-1.05,8.13c1.75,5.21,6.69,24,1.05,26.77s-6.76,2.29-9.64.56c1.27-2.37,3.1-3.16,2.6-5.45s-.98-.32-1.27-.47h0Z"/>
          <path class="cls-7" d="M231,90.48c-18.85-10.58-31.1-15.08-53.2-11.85.98-8.37,2.39-16.51,4.79-24.56s3.94-3.56,5.91-5.05c22.8-11.29,49.82-11.92,73.26-2.53,23.44,9.4,12.66,2.77,14.5,6.31,3.66,7.97,3.73,17.05,5.07,25.89-17.95-3.07-34.77,1.1-50.32,11.68v.1h0Z"/>
          <path class="cls-7" d="M169.43,84.64c-59.32,17.37-110.34,75.32-125.74,142.43l-14.28,4.74c6.97-35.84,21.82-67.82,43.21-94.73,12.88-16.19,26.74-30.32,43.28-41.69,17.52-12,36.31-20.85,56.16-26.45l-2.67,15.71h.07-.03Z"/>
          <path class="cls-7" d="M428.31,230.93c-5.27-.56-9.29-2.68-14-4.34-7.88-31.58-21.89-60.4-41.66-84.4-15.27-18.55-33.7-32.85-53.55-44.61-19.84-11.76-4.57-2.45-7.04-4.66.98-4.66.22-9,.92-14.21,18.72,8.93,36.87,20.93,51.44,35.06,17.73,17.29,33.15,37.03,44.68,60.01,11.54,22.97,17.32,40.11,19.28,57.09l-.07.08h0v-.02Z"/>
          <path class="cls-7" d="M282.58,88.42c-6.34.32-12.1-.39-18.02.71-12.31,2.45-23.64,7.19-34.13,15.08-14.15-10.65-29.98-16.02-46.51-16.27-16.53-.24-5.49,1.35-8.23.32-.28-1.03,0-4.27,1.48-4.58,16.89-4.27,36.03,0,50.45,10.5,2.12,1.5,3.94,1.18,5.91-.15,9.99-7.02,21.04-10.74,32.8-12,11.75-1.26,19.84-1.1,16.25,6.31v.08Z"/>
          <path class="cls-7" d="M293.49,86.29c-.57,2.37-4.01-.24-4.29-2.06-.77-4.9-1.69-9.23-1.97-14.53,3.52.39,6.05,2.06,9.64,3.48-2.18,4.27-2.32,8.13-3.37,13.1h-.01Z"/>
          <path class="cls-5" d="M175.76,303.96c-21.32-5.37-42.08-6.63-63.75-6.79-33.99-.24-67.27,2.6-100.48,9.64-2.47.56-3.59-.79-4.44-2.92-2.47-6.16-4.64-12.32-6.41-18.79s.28-4.19,2.25-4.81c9.99-3.16,19.7-4.9,30.26-5.69,34.27-2.37,67.97.24,102.1,5.76,24.56,4.03,48.06,9.87,71.42,18.47,7.67,2.77,14.5,5.84,21.67,10.42,22.44-14.06,61.93-23.53,87.67-27.95,39.19-6.79,94.58-12.71,132.57-2.06,1.4.39,4.44,1.5,4.01,3.56-1.97,8.61-5.27,16.34-9.01,24.07l-8.73-2.21c-27.66-4.81-54.74-7.82-82.82-7.58-20.76.15-40.67.95-60.86,4.98-11.26,2.21-22.17,3.39-32.86,7.82l-25.19,10.35c-6.76,2.77-15.48-3.31-22.02-5.92-11.61-4.98-22.8-8.13-35.32-10.35h-.07.01Z"/>
          <path class="cls-5" d="M209.32,291.8c-4.79-1.18-8.23-3.56-12.66-5.13-30.54-10.97-61.58-17.84-93.73-21-26.53-2.6-52.28-3.24-78.74-.47-1.9.24-3.87.56-5.35-.71,9.43-7.73,18.15-14.13,27.79-20.14,26.24-.86,47.43,1.1,73.04,6.4,26.74,5.6,58.76,17.05,81.28,34.35,2.82,2.21,6.12,3.24,8.31,6.72h.07v-.02Z"/>
          <path class="cls-5" d="M434.3,265.03c-58.26-5.05-118.15.86-173.24,21-4.37,1.57-7.81,4.1-12.6,4.49,43.41-36.56,109.07-47.84,161.91-46.42,9.5,6.72,14.57,11.61,23.92,20.93h.01Z"/>
          <path class="cls-5" d="M258.79,273.25c-2.6,1.74-4.15,4.98-7.96,4.98,22.94-30.08,66-45.79,100.48-48.95,14.92-1.35,29.41-2.21,44.54,1.26-39.9,3.39-70.72,7.97-108.09,25.42s-19.49,11.05-28.99,17.29h.02Z"/>
          <path class="cls-5" d="M208.27,281.3c-2.74-1.5-4.64-2.84-6.69-4.81-23.99-17.92-50.45-29.76-78.68-36.56-28.21-6.79-38.49-6.48-58.54-9.64,46.8-8.44,114.07,10.42,143.91,51.01Z"/>
          <path class="cls-3" d="M310.24,184.43l.92,26.84c0,.56,1.9-.24,1.9-1.03v-23.45c0-7.11-8.73-6.48-3.8-11.76,6.41-6.87,13.09-12.95,20.12-19.03,1.12-1.03,3.37-1.18,4.5-.15l19,17.29c4.44,4.03-.14,5.69-.22,11.61,5.35,1.66,9.64-6.4,9.78-1.74l1.4,37.1c-42.36-3.24-100,15.55-127.36,52.74l-8.59,11.68c-28.71-47.28-86.13-66.64-134.97-63.64v-29.22c.07-5.37,5.35-3.24,7.74-4.27l.5-14.06c1.27-.86,2.54,0,3.94,0l24.63.63,1.9,16.1c1.9,1.18,4.22.32,6.05,1.82l.35,18.55c2.25.79,4.44,1.18,6.82.56l.28-33.15,2.67-1.03c.7-.24.77-1.89.77-3.24l.28-32.76c0-3,.92-5.69,1.62-8.44.98-3.95-.35-23.21,2.04-29.69,4.99,13.89-.5,21.64,4.44,35.29,7.46,1.82,15.06,3.16,22.87,4.03,3.73-9.32,0-21.95,3.17-30.64,1.83,5.45,1.97,10.74,1.75,16.02-.22,5.28,1.75,13.03,2.95,19.66-.35-1.89-.7,29.22.22,31.65.42,1.1,2.04,1.18,2.89,2.21l.57,33.24,19.77.32.28-16.02,5.84-1.42.28-19.58c4.01-.39,7.61.08,12.1.32l.7,55.82c0,1.1,2.6,1.18,2.6.15v-51.4c.07-16.51-4.22-12-1.12-21s.63-9.08,2.32-13.27c.85-1.42,3.24-.79,4.79-1.1l.77-17.69c4.57.32,21.96-2.45,23.22-1.57s.98,12.95,2.12,16.34c2.47.79,4.79,0,7.53.47l1.55,25.27c3.24,1.03,12.25-3.16,12.38-.79l3.17,51.4c.07,1.57,3.94.79,4.09-.47v-37.5c5.27,1.1,10.28,2.21,16.4,2.37l.07-.39h.01v.02ZM178.51,159.72c.42-3.31.77-6.23-.35-9.08-5.49-1.26-10.48-2.53-16.18-2.6-.22,3.07,0,6.87,1.34,9.64,4.72,2.45,10.06,2.29,15.2,1.97v.08h0ZM160.98,213.09v-31.18c.07-1.26-.42-1.97-1.4-1.82s-.85.71-.85,1.82l.22,31.58c0,1.1.57,1.66,1.34,1.57s.7-.56.7-1.97h0ZM200.18,222.01c-.07-1.1-.28-2.06-1.2-2.06-3.24,0-1.27,15.48-1.34,18.79,3.52,5.52,2.47-17.61,2.54-16.74h0Z"/>
        </g>
      </g>
      <text class="cls-2" transform="translate(638.88 296.04)"><tspan class="cls-9" x="0" y="0">C</tspan><tspan x="33.41" y="0">on</tspan><tspan class="cls-4" x="96" y="0">n</tspan><tspan x="128.59" y="0">e</tspan><tspan class="cls-13" x="157.58" y="0">c</tspan><tspan x="184.89" y="0">ti</tspan><tspan class="cls-4" x="217.29" y="0">n</tspan><tspan x="249.88" y="0" xml:space="preserve">g Alumni    |    Sha</tspan><tspan class="cls-12" x="676.45" y="0">r</tspan><tspan x="695.32" y="0">i</tspan><tspan class="cls-4" x="708.23" y="0">n</tspan><tspan x="740.82" y="0">g S</tspan><tspan class="cls-10" x="815.84" y="0">t</tspan><tspan x="834.42" y="0">o</tspan><tspan class="cls-12" x="864.51" y="0">r</tspan><tspan x="883.38" y="0" xml:space="preserve">ies    |    </tspan><tspan class="cls-8" x="1063.52" y="0">F</tspan><tspan x="1093.04" y="0">u</tspan><tspan class="cls-4" x="1125.35" y="0">n</tspan><tspan class="cls-6" x="1157.94" y="0">di</tspan><tspan class="cls-4" x="1203.39" y="0">n</tspan><tspan x="1235.98" y="0">g </tspan><tspan class="cls-8" x="1281.49" y="0">F</tspan><tspan class="cls-6" x="1311.01" y="0">utu</tspan><tspan class="cls-11" x="1395.1" y="0">r</tspan><tspan x="1413.73" y="0">es</tspan></text>
    </g>
  </g>
</svg>